<?xml version="1.0" encoding="UTF-8"?>
<!DOCTYPE svg PUBLIC "-//W3C//DTD SVG 1.1//EN" "http://www.w3.org/Graphics/SVG/1.1/DTD/svg11.dtd">
<svg xmlns="http://www.w3.org/2000/svg" version="1.1" width="306px" height="410px"
     style="shape-rendering:geometricPrecision; text-rendering:geometricPrecision; image-rendering:optimizeQuality; fill-rule:evenodd; clip-rule:evenodd"
>
    <g>
        <path style="opacity:0.239" fill="#b9bec0"
              d="M 172.5,58.5 C 155.085,56.9604 137.751,57.6271 120.5,60.5C 125.871,58.525 131.538,57.3583 137.5,57C 147.167,56.3333 156.833,56.3333 166.5,57C 168.708,57.1909 170.708,57.6909 172.5,58.5 Z"/>
    </g>
    <g>
        <path style="opacity:1" fill="#152a30"
              d="M 172.5,58.5 C 172.833,58.5 173.167,58.5 173.5,58.5C 174.952,59.3019 176.618,59.8019 178.5,60C 177.552,60.4828 176.552,60.6495 175.5,60.5C 154.564,58.2065 133.897,59.5398 113.5,64.5C 112.494,64.0623 112.494,63.3957 113.5,62.5C 116.228,62.8294 118.562,62.1628 120.5,60.5C 137.751,57.6271 155.085,56.9604 172.5,58.5 Z"/>
    </g>
    <g>
        <path style="opacity:0.612" fill="#a8aeb0"
              d="M 120.5,60.5 C 118.562,62.1628 116.228,62.8294 113.5,62.5C 115.515,61.0762 117.848,60.4095 120.5,60.5 Z"/>
    </g>
    <g>
        <path style="opacity:1" fill="#2c444a"
              d="M 173.5,58.5 C 188.335,60.0542 201.835,65.0542 214,73.5C 233.271,65.5543 244.771,71.8876 248.5,92.5C 247.887,99.4127 244.554,104.413 238.5,107.5C 236.973,107.427 235.973,108.094 235.5,109.5C 237.89,124.734 239.223,140.067 239.5,155.5C 238.504,169.657 238.171,183.99 238.5,198.5C 237.842,175.985 237.009,153.318 236,130.5C 235.063,119.42 232.563,108.754 228.5,98.5C 229.338,98.1583 229.672,97.4916 229.5,96.5C 230.837,100.12 232.337,103.787 234,107.5C 246.125,101.096 248.791,91.7629 242,79.5C 235.855,72.9118 228.355,70.7451 219.5,73C 217.998,73.5831 216.665,74.4164 215.5,75.5C 217.167,77.5 218.833,79.5 220.5,81.5C 222.969,82.1681 225.302,82.8347 227.5,83.5C 225.167,83.5 222.833,83.5 220.5,83.5C 211.082,72.9559 199.415,66.2893 185.5,63.5C 182.22,62.2879 178.887,61.2879 175.5,60.5C 176.552,60.6495 177.552,60.4828 178.5,60C 176.618,59.8019 174.952,59.3019 173.5,58.5 Z"/>
    </g>
    <g>
        <path style="opacity:0.424" fill="#899090"
              d="M 77.5,74.5 C 73.8333,74.5 70.1667,74.5 66.5,74.5C 70.1417,71.9887 73.8083,71.9887 77.5,74.5 Z"/>
    </g>
    <g>
        <path style="opacity:1" fill="#f8fafa"
              d="M 155.5,105.5 C 155.5,102.167 155.5,98.8333 155.5,95.5C 161.487,78.3341 173.487,71.8341 191.5,76C 202.119,79.7361 207.452,87.2361 207.5,98.5C 206.751,112.422 199.418,120.589 185.5,123C 174.035,124.514 164.868,120.68 158,111.5C 156.878,109.593 156.045,107.593 155.5,105.5 Z"/>
    </g>
    <g>
        <path style="opacity:1" fill="#7ac9d7"
              d="M 229.5,96.5 C 230.151,94.1743 230.818,91.8409 231.5,89.5C 231.365,86.6991 230.032,84.6991 227.5,83.5C 225.302,82.8347 222.969,82.1681 220.5,81.5C 218.833,79.5 217.167,77.5 215.5,75.5C 216.665,74.4164 217.998,73.5831 219.5,73C 228.355,70.7451 235.855,72.9118 242,79.5C 248.791,91.7629 246.125,101.096 234,107.5C 232.337,103.787 230.837,100.12 229.5,96.5 Z"/>
    </g>
    <g>
        <path style="opacity:1" fill="#7bc6d4"
              d="M 72.5,87.5 C 67.6479,86.2772 64.4812,87.9438 63,92.5C 62.6579,96.1448 64.1579,98.8115 67.5,100.5C 66.8333,103.833 66.1667,107.167 65.5,110.5C 59.0691,109.578 54.9024,105.911 53,99.5C 51.6944,87.461 56.8611,79.6276 68.5,76C 72.5511,75.4823 76.5511,75.8157 80.5,77C 81.3567,77.6891 82.0233,78.5224 82.5,79.5C 79.8116,82.354 77.3116,85.354 75,88.5C 74.3292,87.7476 73.4959,87.4142 72.5,87.5 Z"/>
    </g>
    <g>
        <path style="opacity:1" fill="#1c383e"
              d="M 209.5,95.5 C 210.162,110.685 203.162,120.185 188.5,124C 174.758,127.036 163.925,122.87 156,111.5C 155.5,110 155,108.5 154.5,107C 154.57,106.235 154.903,105.735 155.5,105.5C 156.045,107.593 156.878,109.593 158,111.5C 164.868,120.68 174.035,124.514 185.5,123C 199.418,120.589 206.751,112.422 207.5,98.5C 207.452,87.2361 202.119,79.7361 191.5,76C 173.487,71.8341 161.487,78.3341 155.5,95.5C 154.681,98.3054 154.181,101.305 154,104.5C 153.501,100.514 153.334,96.5138 153.5,92.5C 161.415,77.0438 174.082,70.8771 191.5,74C 201.673,77.6731 207.673,84.8398 209.5,95.5 Z"/>
    </g>
    <g>
        <path style="opacity:1" fill="#091319"
              d="M 220.5,83.5 C 222.833,83.5 225.167,83.5 227.5,83.5C 230.032,84.6991 231.365,86.6991 231.5,89.5C 230.818,91.8409 230.151,94.1743 229.5,96.5C 229.672,97.4916 229.338,98.1583 228.5,98.5C 226.61,93.0506 223.943,88.0506 220.5,83.5 Z"/>
    </g>
    <g>
        <path style="opacity:1" fill="#070f13"
              d="M 72.5,87.5 C 73.6005,88.6049 74.2671,89.9382 74.5,91.5C 72.4517,95.3038 70.785,99.3038 69.5,103.5C 68.8333,102.5 68.1667,101.5 67.5,100.5C 64.1579,98.8115 62.6579,96.1448 63,92.5C 64.4812,87.9438 67.6479,86.2772 72.5,87.5 Z"/>
    </g>
    <g>
        <path style="opacity:0.012" fill="#909898"
              d="M 238.5,107.5 C 238.027,108.906 237.027,109.573 235.5,109.5C 235.973,108.094 236.973,107.427 238.5,107.5 Z"/>
    </g>
    <g>
        <path style="opacity:1" fill="#79cad7"
              d="M 175.5,60.5 C 178.887,61.2879 182.22,62.2879 185.5,63.5C 177.674,62.117 169.674,61.4503 161.5,61.5C 152.706,62.0915 144.04,62.4249 135.5,62.5C 135.5,63.8333 135.5,65.1667 135.5,66.5C 130.537,65.5036 125.537,65.3369 120.5,66C 113.889,67.8089 107.223,69.3089 100.5,70.5C 100.714,72.1439 100.38,73.6439 99.5,75C 106.137,74.5595 112.804,74.5595 119.5,75C 120.416,75.2784 121.082,75.7784 121.5,76.5C 106.023,73.5188 94.5232,78.8521 87,92.5C 83.4029,117.407 94.2363,129.073 119.5,127.5C 121.5,127.5 123.5,127.5 125.5,127.5C 122.813,128.353 120.479,129.853 118.5,132C 112.204,131.816 107.37,134.316 104,139.5C 102.203,137.844 100.036,136.844 97.5,136.5C 96.3961,135.369 96.7295,134.535 98.5,134C 96.8008,133.607 95.3008,134.107 94,135.5C 92.48,134.493 90.8133,133.827 89,133.5C 84.5444,134.691 80.0444,135.691 75.5,136.5C 74.4563,137.623 73.7896,138.956 73.5,140.5C 76.5966,143.633 76.0966,145.966 72,147.5C 70.6998,146.293 69.1998,145.626 67.5,145.5C 68.1436,150.086 68.1436,154.586 67.5,159C 68.6841,160.18 69.3507,161.68 69.5,163.5C 68.4002,166.385 68.4002,169.218 69.5,172C 68.5652,175.108 67.8985,178.275 67.5,181.5C 68.6297,204.168 68.4631,226.835 67,249.5C 66.7489,251.433 66.2489,253.266 65.5,255C 66.4513,268.784 67.4513,282.617 68.5,296.5C 66.6352,291.648 65.3019,286.648 64.5,281.5C 63.9147,274.693 63.5813,267.859 63.5,261C 64.3453,241.155 65.3453,221.322 66.5,201.5C 66.4108,188.453 65.5775,175.453 64,162.5C 63.3333,149.833 63.3333,137.167 64,124.5C 65.0596,117.26 66.893,110.26 69.5,103.5C 70.785,99.3038 72.4517,95.3038 74.5,91.5C 84.561,78.299 97.561,69.299 113.5,64.5C 133.897,59.5398 154.564,58.2065 175.5,60.5 Z"/>
    </g>
    <g>
        <path style="opacity:0.863" fill="#24383e"
              d="M 113.5,62.5 C 112.494,63.3957 112.494,64.0623 113.5,64.5C 97.561,69.299 84.561,78.299 74.5,91.5C 74.2671,89.9382 73.6005,88.6049 72.5,87.5C 73.4959,87.4142 74.3292,87.7476 75,88.5C 77.3116,85.354 79.8116,82.354 82.5,79.5C 82.0233,78.5224 81.3567,77.6891 80.5,77C 76.5511,75.8157 72.5511,75.4823 68.5,76C 56.8611,79.6276 51.6944,87.461 53,99.5C 54.9024,105.911 59.0691,109.578 65.5,110.5C 66.1667,107.167 66.8333,103.833 67.5,100.5C 68.1667,101.5 68.8333,102.5 69.5,103.5C 66.893,110.26 65.0596,117.26 64,124.5C 63.3333,137.167 63.3333,149.833 64,162.5C 65.5775,175.453 66.4108,188.453 66.5,201.5C 65.3453,221.322 64.3453,241.155 63.5,261C 63.5813,267.859 63.9147,274.693 64.5,281.5C 64.6567,282.873 64.49,284.207 64,285.5C 63.79,283.942 63.29,282.609 62.5,281.5C 62.5,281.167 62.5,280.833 62.5,280.5C 62.5,267.833 62.5,255.167 62.5,242.5C 62.4255,236.471 62.7588,230.471 63.5,224.5C 64.4731,222.052 64.8064,219.385 64.5,216.5C 62.2972,216.604 60.2972,217.27 58.5,218.5C 57.8333,218.5 57.5,218.167 57.5,217.5C 59.4605,215.688 61.7939,214.688 64.5,214.5C 64.5,213.167 64.5,211.833 64.5,210.5C 65.4794,207.375 65.8128,204.042 65.5,200.5C 64.5,200.5 63.5,200.5 62.5,200.5C 63.0906,199.849 63.7573,199.182 64.5,198.5C 62.7827,180.223 61.4494,161.889 60.5,143.5C 61.2268,133.446 62.0601,123.446 63,113.5C 46.3692,102.906 45.2026,90.7394 59.5,77C 61.7654,75.8822 64.0987,75.0488 66.5,74.5C 70.1667,74.5 73.8333,74.5 77.5,74.5C 79.099,74.2322 80.4324,74.5655 81.5,75.5C 83.594,77.9938 85.594,77.9938 87.5,75.5C 94.9065,68.9034 103.573,64.5701 113.5,62.5 Z"/>
    </g>
    <g>
        <path style="opacity:0.082" fill="#94aaaf"
              d="M 81.5,75.5 C 83.6112,76.3799 85.6112,76.3799 87.5,75.5C 85.594,77.9938 83.594,77.9938 81.5,75.5 Z"/>
    </g>
    <g>
        <path style="opacity:1" fill="#77ccdd"
              d="M 185.5,63.5 C 199.415,66.2893 211.082,72.9559 220.5,83.5C 223.943,88.0506 226.61,93.0506 228.5,98.5C 232.563,108.754 235.063,119.42 236,130.5C 237.009,153.318 237.842,175.985 238.5,198.5C 238.833,204.5 239.167,210.5 239.5,216.5C 241.312,237.9 240.812,259.234 238,280.5C 235.344,294.473 229.51,306.807 220.5,317.5C 215.746,322.591 210.413,326.924 204.5,330.5C 194.184,335.274 183.517,338.607 172.5,340.5C 144.865,345.064 118.531,341.23 93.5,329C 88.6888,326.015 84.3555,322.515 80.5,318.5C 74.4215,312.346 70.4215,305.013 68.5,296.5C 67.4513,282.617 66.4513,268.784 65.5,255C 66.2489,253.266 66.7489,251.433 67,249.5C 68.4631,226.835 68.6297,204.168 67.5,181.5C 67.8985,178.275 68.5652,175.108 69.5,172C 68.4002,169.218 68.4002,166.385 69.5,163.5C 69.3507,161.68 68.6841,160.18 67.5,159C 68.1436,154.586 68.1436,150.086 67.5,145.5C 69.1998,145.626 70.6998,146.293 72,147.5C 76.0966,145.966 76.5966,143.633 73.5,140.5C 73.7896,138.956 74.4563,137.623 75.5,136.5C 80.0444,135.691 84.5444,134.691 89,133.5C 90.8133,133.827 92.48,134.493 94,135.5C 95.3008,134.107 96.8008,133.607 98.5,134C 96.7295,134.535 96.3961,135.369 97.5,136.5C 100.036,136.844 102.203,137.844 104,139.5C 107.37,134.316 112.204,131.816 118.5,132C 120.479,129.853 122.813,128.353 125.5,127.5C 126.496,127.586 127.329,127.252 128,126.5C 128.497,128.81 128.663,131.143 128.5,133.5C 127.46,139.102 129.46,143.102 134.5,145.5C 135.169,147.631 135.835,149.631 136.5,151.5C 136.935,161.153 141.101,163.486 149,158.5C 150.853,160.187 153.019,161.187 155.5,161.5C 158.102,161.533 160.102,160.533 161.5,158.5C 162.483,154.702 162.817,150.702 162.5,146.5C 169.786,146.547 173.453,142.88 173.5,135.5C 173.474,132.049 171.974,129.382 169,127.5C 168.251,126.365 168.417,125.365 169.5,124.5C 176.783,125.632 184.117,125.799 191.5,125C 195.76,123.228 200.093,121.728 204.5,120.5C 205.172,117.356 206.172,114.356 207.5,111.5C 208.5,111.5 209.5,111.5 210.5,111.5C 210.973,108.303 211.639,105.137 212.5,102C 211.238,99.8301 210.238,97.6635 209.5,95.5C 207.673,84.8398 201.673,77.6731 191.5,74C 174.082,70.8771 161.415,77.0438 153.5,92.5C 152.2,94.223 151.533,96.3897 151.5,99C 151.706,102.512 152.039,106.012 152.5,109.5C 152.402,111.619 151.569,113.286 150,114.5C 147.838,111.515 145.671,108.515 143.5,105.5C 142.672,101.204 142.172,96.8711 142,92.5C 141.668,89.4567 140.168,87.4567 137.5,86.5C 135.037,84.5389 132.703,82.3722 130.5,80C 127.516,78.7286 124.516,77.562 121.5,76.5C 121.082,75.7784 120.416,75.2784 119.5,75C 112.804,74.5595 106.137,74.5595 99.5,75C 100.38,73.6439 100.714,72.1439 100.5,70.5C 107.223,69.3089 113.889,67.8089 120.5,66C 125.537,65.3369 130.537,65.5036 135.5,66.5C 135.5,65.1667 135.5,63.8333 135.5,62.5C 144.04,62.4249 152.706,62.0915 161.5,61.5C 169.674,61.4503 177.674,62.117 185.5,63.5 Z"/>
    </g>
    <g>
        <path style="opacity:1" fill="#0d0e11"
              d="M 164.5,92.5 C 173.099,91.9359 176.599,95.9359 175,104.5C 170.833,110.759 166.167,111.092 161,105.5C 159.539,100.326 160.706,95.9932 164.5,92.5 Z"/>
    </g>
    <g>
        <path style="opacity:1" fill="#7fc1ce"
              d="M 137.5,86.5 C 140.168,87.4567 141.668,89.4567 142,92.5C 142.172,96.8711 142.672,101.204 143.5,105.5C 145.671,108.515 147.838,111.515 150,114.5C 151.569,113.286 152.402,111.619 152.5,109.5C 152.039,106.012 151.706,102.512 151.5,99C 151.533,96.3897 152.2,94.223 153.5,92.5C 153.334,96.5138 153.501,100.514 154,104.5C 154.181,101.305 154.681,98.3054 155.5,95.5C 155.5,98.8333 155.5,102.167 155.5,105.5C 154.903,105.735 154.57,106.235 154.5,107C 155,108.5 155.5,110 156,111.5C 163.925,122.87 174.758,127.036 188.5,124C 203.162,120.185 210.162,110.685 209.5,95.5C 210.238,97.6635 211.238,99.8301 212.5,102C 211.639,105.137 210.973,108.303 210.5,111.5C 209.5,111.5 208.5,111.5 207.5,111.5C 206.172,114.356 205.172,117.356 204.5,120.5C 200.093,121.728 195.76,123.228 191.5,125C 184.117,125.799 176.783,125.632 169.5,124.5C 168.417,125.365 168.251,126.365 169,127.5C 171.974,129.382 173.474,132.049 173.5,135.5C 169.386,131.061 165.386,126.728 161.5,122.5C 161.586,121.504 161.252,120.671 160.5,120C 154.307,115.931 147.973,115.597 141.5,119C 140.117,120.271 139.117,121.771 138.5,123.5C 134.86,126.473 131.527,129.806 128.5,133.5C 128.663,131.143 128.497,128.81 128,126.5C 127.329,127.252 126.496,127.586 125.5,127.5C 123.5,127.5 121.5,127.5 119.5,127.5C 139.957,120.248 145.957,106.581 137.5,86.5 Z"/>
    </g>
    <g>
        <path style="opacity:1" fill="#d6d7da"
              d="M 170.5,100.5 C 173.956,101.536 174.29,103.203 171.5,105.5C 169.296,104.218 168.962,102.551 170.5,100.5 Z"/>
    </g>
    <g>
        <path style="opacity:1" fill="#0c0e0f"
              d="M 161.5,122.5 C 161.634,124.292 161.301,125.958 160.5,127.5C 157.214,130.596 153.214,131.929 148.5,131.5C 144.223,132.227 140.889,130.893 138.5,127.5C 138.5,126.167 138.5,124.833 138.5,123.5C 139.117,121.771 140.117,120.271 141.5,119C 147.973,115.597 154.307,115.931 160.5,120C 161.252,120.671 161.586,121.504 161.5,122.5 Z"/>
    </g>
    <g>
        <path style="opacity:1" fill="#203c43"
              d="M 121.5,76.5 C 124.516,77.562 127.516,78.7286 130.5,80C 132.703,82.3722 135.037,84.5389 137.5,86.5C 145.957,106.581 139.957,120.248 119.5,127.5C 94.2363,129.073 83.4029,117.407 87,92.5C 94.5232,78.8521 106.023,73.5188 121.5,76.5 Z"/>
    </g>
    <g>
        <path style="opacity:1" fill="#f8fafa"
              d="M 107.5,77.5 C 133.453,76.6012 143.286,88.6012 137,113.5C 128.473,124.493 117.306,128.326 103.5,125C 90.9941,119.219 85.8274,109.386 88,95.5C 91.511,86.1518 98.011,80.1518 107.5,77.5 Z"/>
    </g>
    <g>
        <path style="opacity:1" fill="#0b0c0e"
              d="M 96.5,94.5 C 107.684,95.0421 110.684,100.209 105.5,110C 95.8984,113.069 91.7317,109.569 93,99.5C 93.9973,97.6769 95.1639,96.0103 96.5,94.5 Z"/>
    </g>
    <g>
        <path style="opacity:1" fill="#d0d1d3"
              d="M 102.5,102.5 C 105.084,103.048 106.084,104.715 105.5,107.5C 101.716,107.475 100.716,105.808 102.5,102.5 Z"/>
    </g>
    <g>
        <path style="opacity:1" fill="#2f4642"
              d="M 161.5,122.5 C 165.386,126.728 169.386,131.061 173.5,135.5C 173.453,142.88 169.786,146.547 162.5,146.5C 162.817,150.702 162.483,154.702 161.5,158.5C 161.5,153.5 161.5,148.5 161.5,143.5C 166.782,145.409 170.115,143.576 171.5,138C 169.967,132.301 166.301,128.801 160.5,127.5C 161.301,125.958 161.634,124.292 161.5,122.5 Z"/>
    </g>
    <g>
        <path style="opacity:1" fill="#f1d0a3"
              d="M 138.5,127.5 C 140.889,130.893 144.223,132.227 148.5,131.5C 153.214,131.929 157.214,130.596 160.5,127.5C 166.301,128.801 169.967,132.301 171.5,138C 170.115,143.576 166.782,145.409 161.5,143.5C 156.351,140.872 151.018,140.206 145.5,141.5C 142.552,142.32 139.552,142.986 136.5,143.5C 130.903,142.474 129.07,139.141 131,133.5C 132.48,130.183 134.98,128.183 138.5,127.5 Z"/>
    </g>
    <g>
        <path style="opacity:1" fill="#323f36"
              d="M 138.5,123.5 C 138.5,124.833 138.5,126.167 138.5,127.5C 134.98,128.183 132.48,130.183 131,133.5C 129.07,139.141 130.903,142.474 136.5,143.5C 139.552,142.986 142.552,142.32 145.5,141.5C 145.5,142.167 145.833,142.5 146.5,142.5C 143.746,143.946 140.746,144.946 137.5,145.5C 136.539,147.265 136.205,149.265 136.5,151.5C 135.835,149.631 135.169,147.631 134.5,145.5C 129.46,143.102 127.46,139.102 128.5,133.5C 131.527,129.806 134.86,126.473 138.5,123.5 Z"/>
    </g>
    <g>
        <path style="opacity:1" fill="#eceff0"
              d="M 146.5,142.5 C 147.805,144.397 148.471,146.731 148.5,149.5C 149.696,156.801 146.862,159.801 140,158.5C 137.947,154.414 137.113,150.08 137.5,145.5C 140.746,144.946 143.746,143.946 146.5,142.5 Z"/>
    </g>
    <g>
        <path style="opacity:1" fill="#192429"
              d="M 161.5,143.5 C 161.5,148.5 161.5,153.5 161.5,158.5C 160.102,160.533 158.102,161.533 155.5,161.5C 153.019,161.187 150.853,160.187 149,158.5C 141.101,163.486 136.935,161.153 136.5,151.5C 136.205,149.265 136.539,147.265 137.5,145.5C 137.113,150.08 137.947,154.414 140,158.5C 146.862,159.801 149.696,156.801 148.5,149.5C 148.471,146.731 147.805,144.397 146.5,142.5C 145.833,142.5 145.5,142.167 145.5,141.5C 151.018,140.206 156.351,140.872 161.5,143.5 Z"/>
    </g>
    <g>
        <path style="opacity:1" fill="#f2f5f5"
              d="M 150.5,142.5 C 153.877,142.959 157.211,143.626 160.5,144.5C 160.666,148.846 160.499,153.179 160,157.5C 157,161.5 154,161.5 151,157.5C 150.501,152.511 150.334,147.511 150.5,142.5 Z"/>
    </g>
    <g>
        <path style="opacity:0.067" fill="#959c9f"
              d="M 239.5,157.5 C 240.183,171.402 240.849,185.402 241.5,199.5C 240.833,199.5 240.167,199.5 239.5,199.5C 239.5,185.5 239.5,171.5 239.5,157.5 Z"/>
    </g>
    <g>
        <path style="opacity:0.745" fill="#031419"
              d="M 239.5,155.5 C 239.5,156.167 239.5,156.833 239.5,157.5C 239.5,171.5 239.5,185.5 239.5,199.5C 239.216,201.415 239.549,203.081 240.5,204.5C 240.5,207.5 240.5,210.5 240.5,213.5C 241.116,214.798 241.116,215.798 240.5,216.5C 240.167,216.5 239.833,216.5 239.5,216.5C 239.167,210.5 238.833,204.5 238.5,198.5C 238.171,183.99 238.504,169.657 239.5,155.5 Z"/>
    </g>
    <g>
        <path style="opacity:0.612" fill="#41392f"
              d="M 239.5,199.5 C 240.167,199.5 240.833,199.5 241.5,199.5C 249.489,199.659 255.489,203.159 259.5,210C 258.684,215.809 255.517,219.309 250,220.5C 247.739,220.561 245.739,219.894 244,218.5C 242.294,219.308 241.461,220.641 241.5,222.5C 240.539,220.735 240.205,218.735 240.5,216.5C 241.116,215.798 241.116,214.798 240.5,213.5C 243.639,215.819 247.139,217.485 251,218.5C 255.452,216.74 255.619,214.574 251.5,212C 253.107,212.019 254.774,212.185 256.5,212.5C 255.498,206.993 252.164,203.493 246.5,202C 244.527,201.505 242.527,201.338 240.5,201.5C 240.5,202.5 240.5,203.5 240.5,204.5C 239.549,203.081 239.216,201.415 239.5,199.5 Z"/>
    </g>
    <g>
        <path style="opacity:1" fill="#40372e"
              d="M 62.5,200.5 C 63.5,200.5 64.5,200.5 65.5,200.5C 65.8128,204.042 65.4794,207.375 64.5,210.5C 64.5,207.833 64.5,205.167 64.5,202.5C 57.5086,201.996 51.6752,204.329 47,209.5C 46.51,210.793 46.3433,212.127 46.5,213.5C 48.3307,212.948 49.9974,212.948 51.5,213.5C 48.1771,214.938 47.8438,216.771 50.5,219C 53.0652,219.609 55.3985,219.109 57.5,217.5C 57.5,218.167 57.8333,218.5 58.5,218.5C 58.5,218.833 58.5,219.167 58.5,219.5C 52.5828,223.094 48.0828,221.761 45,215.5C 44.3333,213.167 44.3333,210.833 45,208.5C 49.4308,202.853 55.2641,200.186 62.5,200.5 Z"/>
    </g>
    <g>
        <path style="opacity:1" fill="#e9cea5"
              d="M 240.5,213.5 C 240.5,210.5 240.5,207.5 240.5,204.5C 240.5,203.5 240.5,202.5 240.5,201.5C 242.527,201.338 244.527,201.505 246.5,202C 252.164,203.493 255.498,206.993 256.5,212.5C 254.774,212.185 253.107,212.019 251.5,212C 255.619,214.574 255.452,216.74 251,218.5C 247.139,217.485 243.639,215.819 240.5,213.5 Z"/>
    </g>
    <g>
        <path style="opacity:1" fill="#ebcfa9"
              d="M 64.5,210.5 C 64.5,211.833 64.5,213.167 64.5,214.5C 61.7939,214.688 59.4605,215.688 57.5,217.5C 55.3985,219.109 53.0652,219.609 50.5,219C 47.8438,216.771 48.1771,214.938 51.5,213.5C 49.9974,212.948 48.3307,212.948 46.5,213.5C 46.3433,212.127 46.51,210.793 47,209.5C 51.6752,204.329 57.5086,201.996 64.5,202.5C 64.5,205.167 64.5,207.833 64.5,210.5 Z"/>
    </g>
    <g>
        <path style="opacity:0.02" fill="#8f8e8e"
              d="M 63.5,224.5 C 63.6633,222.143 63.4966,219.81 63,217.5C 61.6703,218.582 60.1703,219.249 58.5,219.5C 58.5,219.167 58.5,218.833 58.5,218.5C 60.2972,217.27 62.2972,216.604 64.5,216.5C 64.8064,219.385 64.4731,222.052 63.5,224.5 Z"/>
    </g>
    <g>
        <path style="opacity:0.984" fill="#293f46"
              d="M 239.5,216.5 C 239.833,216.5 240.167,216.5 240.5,216.5C 240.205,218.735 240.539,220.735 241.5,222.5C 245.188,248.664 243.021,274.331 235,299.5C 232.179,306.801 228.013,313.135 222.5,318.5C 222.158,317.662 221.492,317.328 220.5,317.5C 229.51,306.807 235.344,294.473 238,280.5C 240.812,259.234 241.312,237.9 239.5,216.5 Z"/>
    </g>
    <g>
        <path style="opacity:0.669" fill="#56615e"
              d="M 62.5,242.5 C 62.5,255.167 62.5,267.833 62.5,280.5C 61.8191,272.765 61.1524,264.932 60.5,257C 61.1437,252.066 61.8103,247.233 62.5,242.5 Z"/>
    </g>
    <g>
        <path style="opacity:0.553" fill="#2d4448"
              d="M 62.5,281.5 C 63.29,282.609 63.79,283.942 64,285.5C 64.49,284.207 64.6567,282.873 64.5,281.5C 65.3019,286.648 66.6352,291.648 68.5,296.5C 70.4215,305.013 74.4215,312.346 80.5,318.5C 79.6618,318.842 79.3284,319.508 79.5,320.5C 69.2305,309.617 63.5638,296.617 62.5,281.5 Z"/>
    </g>
    <g>
        <path style="opacity:0.773" fill="#3a3429"
              d="M 220.5,317.5 C 221.492,317.328 222.158,317.662 222.5,318.5C 222.351,319.552 222.517,320.552 223,321.5C 228.785,325.779 232.285,331.446 233.5,338.5C 232.867,340.786 231.534,342.452 229.5,343.5C 225.714,345.704 221.714,346.038 217.5,344.5C 213.548,341.215 209.881,337.548 206.5,333.5C 205.833,332.5 205.167,331.5 204.5,330.5C 210.413,326.924 215.746,322.591 220.5,317.5 Z"/>
    </g>
    <g>
        <path style="opacity:1" fill="#e6cba8"
              d="M 84.5,324.5 C 88.9648,327.904 93.6315,331.071 98.5,334C 97.4734,334.513 96.4734,335.013 95.5,335.5C 95.1667,335.5 94.8333,335.5 94.5,335.5C 89.776,340.282 84.276,343.949 78,346.5C 75.741,346.739 74.5743,345.739 74.5,343.5C 79.6254,332.132 78.792,331.799 72,342.5C 70,339.5 70,336.5 72,333.5C 75.2571,329.053 79.4238,326.053 84.5,324.5 Z"/>
    </g>
    <g>
        <path style="opacity:0.612" fill="#233435"
              d="M 80.5,318.5 C 84.3555,322.515 88.6888,326.015 93.5,329C 118.531,341.23 144.865,345.064 172.5,340.5C 173.552,340.351 174.552,340.517 175.5,341C 174.263,341.232 173.263,341.732 172.5,342.5C 168.629,342.185 164.962,342.518 161.5,343.5C 141.066,345.697 121.233,343.031 102,335.5C 100.56,336.148 99.0603,336.481 97.5,336.5C 96.5084,336.672 95.8417,336.338 95.5,335.5C 96.4734,335.013 97.4734,334.513 98.5,334C 93.6315,331.071 88.9648,327.904 84.5,324.5C 82.6216,323.468 80.9549,322.134 79.5,320.5C 79.3284,319.508 79.6618,318.842 80.5,318.5 Z"/>
    </g>
    <g>
        <path style="opacity:0.776" fill="#324348"
              d="M 204.5,330.5 C 205.167,331.5 205.833,332.5 206.5,333.5C 195.519,337.714 184.185,340.714 172.5,342.5C 173.263,341.732 174.263,341.232 175.5,341C 174.552,340.517 173.552,340.351 172.5,340.5C 183.517,338.607 194.184,335.274 204.5,330.5 Z"/>
    </g>
    <g>
        <path style="opacity:1" fill="#eacea3"
              d="M 217.5,322.5 C 226.068,324.98 230.234,330.647 230,339.5C 229.586,339.957 229.086,340.291 228.5,340.5C 227.081,338.664 225.914,336.664 225,334.5C 224.107,333.289 223.274,333.289 222.5,334.5C 225.068,337.359 226.068,340.526 225.5,344C 223.029,344.706 220.695,344.373 218.5,343C 215.167,338.333 211.167,334.333 206.5,331C 210.638,328.685 214.305,325.852 217.5,322.5 Z"/>
    </g>
    <g>
        <path style="opacity:1" fill="#f6d3a1"
              d="M 94.5,335.5 C 89.5298,335.807 85.8631,338.14 83.5,342.5C 80.7075,343.955 78.3741,343.455 76.5,341C 78.876,339.576 80.5426,337.576 81.5,335C 80.556,333.523 79.2226,332.523 77.5,332C 78.4663,327.231 80.4663,326.564 83.5,330C 85.4727,330.495 87.4727,330.662 89.5,330.5C 89.5,331.5 89.5,332.5 89.5,333.5C 91.7812,333.077 93.4479,333.744 94.5,335.5 Z"/>
    </g>
    <g>
        <path style="opacity:0.847" fill="#494038"
              d="M 79.5,320.5 C 80.9549,322.134 82.6216,323.468 84.5,324.5C 79.4238,326.053 75.2571,329.053 72,333.5C 70,336.5 70,339.5 72,342.5C 78.792,331.799 79.6254,332.132 74.5,343.5C 74.5743,345.739 75.741,346.739 78,346.5C 84.276,343.949 89.776,340.282 94.5,335.5C 94.8333,335.5 95.1667,335.5 95.5,335.5C 95.8417,336.338 96.5084,336.672 97.5,336.5C 92.7317,340.091 88.0651,343.925 83.5,348C 75.1552,350.317 69.8219,347.151 67.5,338.5C 69.6748,332.659 73.3415,327.992 78.5,324.5C 79.4287,323.311 79.762,321.978 79.5,320.5 Z"/>
    </g>
    <g>
        <path style="opacity:0.498" fill="#65706f"
              d="M 172.5,342.5 C 169.103,343.198 165.603,343.865 162,344.5C 161.601,344.272 161.435,343.938 161.5,343.5C 164.962,342.518 168.629,342.185 172.5,342.5 Z"/>
    </g>
    <g>
        <path style="opacity:0.549" fill="#7a6f70"
              d="M 229.5,343.5 C 225.78,348.198 221.78,348.531 217.5,344.5C 221.714,346.038 225.714,345.704 229.5,343.5 Z"/>
    </g>
</svg>
