<svg t="1715844308979" class="icon" viewBox="0 0 1024 1024" version="1.1" xmlns="http://www.w3.org/2000/svg" p-id="22098" width="20" height="20">
    <path d="M512 64a448.128 448.128 0 0 0 0 896 446.976 446.976 0 0 0 381.056-212.288c18.56-30.08 0-48.768-30.016-67.392-30.08-18.624-60.16-30.08-78.784 0A318.976 318.976 0 0 1 512 832a320 320 0 0 1 0-640c35.328 0 40.448-30.72 40.448-66.048S547.328 64 512 64z m447.68 469.568c6.784-177.92-84.672-327.616-220.224-407.616-30.464-17.92-47.104 1.92-65.088 32.384-17.92 30.4-30.464 59.904 0 77.824A319.744 319.744 0 0 1 832 512c0 35.328 33.664 40.576 61.056 52.864 27.328 12.288 65.28 3.968 66.624-31.296z"
          fill="#8a8a8a" p-id="22099"></path>
</svg>