<?xml version="1.0" standalone="no"?><!DOCTYPE svg PUBLIC "-//W3C//DTD SVG 1.1//EN"
        "http://www.w3.org/Graphics/SVG/1.1/DTD/svg11.dtd">
<svg t="1713592660921" class="icon" viewBox="0 0 1024 1024" version="1.1" xmlns="http://www.w3.org/2000/svg" p-id="7019"
     width="15" height="15">
    <path d="M508.475476 777.927066a262.879 262.879 0 1 0 14.927684-525.546038 262.879 262.879 0 1 0-14.927684 525.546038Z"
          p-id="7020" fill="#ffffff"></path>
    <path d="M512.119 213.154c17.673 0 32-14.327 32-32V95.896c0-17.673-14.327-32-32-32-17.673 0-32 14.327-32 32v85.258c0 17.673 14.327 32 32 32zM743.779 308.938c8.186 0.232 16.461-2.658 22.884-8.727l61.973-58.553c12.845-12.137 13.42-32.391 1.283-45.237-12.139-12.846-32.391-13.421-45.237-1.283l-61.973 58.553c-12.845 12.137-13.42 32.391-1.283 45.237 6.069 6.422 14.167 9.777 22.353 10.01zM936.04 487.929l-85.224-2.417c-17.666-0.501-32.393 13.414-32.894 31.08-0.501 17.666 13.414 32.394 31.08 32.895l85.224 2.417c17.666 0.501 32.393-13.415 32.894-31.08 0.501-17.667-13.414-32.394-31.08-32.895zM773.672 730.999c-12.137-12.846-32.391-13.42-45.237-1.284-12.846 12.138-13.421 32.391-1.284 45.237l58.552 61.972c6.069 6.424 14.166 9.779 22.353 10.011 8.185 0.232 16.462-2.659 22.884-8.727 12.846-12.138 13.421-32.391 1.284-45.237l-58.552-61.972zM514.455 817.14c-17.666-0.501-32.393 13.414-32.894 31.08l-2.417 85.224c-0.501 17.666 13.414 32.393 31.08 32.894 17.666 0.501 32.393-13.414 32.894-31.08l2.417-85.224c0.501-17.665-13.414-32.393-31.08-32.894zM256.094 726.369l-61.972 58.553c-12.846 12.138-13.42 32.391-1.283 45.237 6.069 6.425 14.165 9.779 22.353 10.011 8.185 0.232 16.461-2.659 22.884-8.727l61.972-58.553c12.846-12.138 13.42-32.391 1.283-45.237-12.138-12.848-32.391-13.42-45.237-1.284zM213.906 513.673c0.501-17.666-13.414-32.393-31.08-32.894l-85.224-2.417c-17.666-0.501-32.393 13.414-32.894 31.08-0.501 17.666 13.414 32.393 31.08 32.894l85.224 2.417c17.665 0.501 32.393-13.414 32.894-31.08zM258.157 299.266c6.069 6.423 14.166 9.778 22.353 10.01 8.186 0.232 16.461-2.658 22.884-8.727 12.846-12.137 13.42-32.39 1.283-45.237l-58.553-61.972c-12.138-12.846-32.39-13.421-45.237-1.283-12.846 12.137-13.42 32.391-1.283 45.237l58.553 61.972z"
          p-id="7021" fill="#ffffff"></path>
</svg>