<?xml version="1.0" standalone="no"?><!DOCTYPE svg PUBLIC "-//W3C//DTD SVG 1.1//EN"
        "http://www.w3.org/Graphics/SVG/1.1/DTD/svg11.dtd">
<svg t="1713594067660" class="icon" viewBox="0 0 1024 1024" version="1.1" xmlns="http://www.w3.org/2000/svg" p-id="5287"
     width="23" height="23">
    <path d="M832 744H638.4l-48 131.2h-57.6l166.4-440h75.2l166.4 440H880l-48-131.2z m-17.6-51.2l-73.6-204.8h-8L656 692.8h158.4z"
          fill="#ffffff" p-id="5288"></path>
    <path d="M532.8 697.6s-8-3.2-46.4-27.2c-44.8-27.2-86.4-52.8-121.6-83.2-35.2 28.8-75.2 56-121.6 81.6-46.4 25.6-100.8 49.6-163.2 73.6l-28.8-52.8c60.8-20.8 113.6-43.2 158.4-65.6 44.8-22.4 83.2-46.4 115.2-73.6-35.2-35.2-64-75.2-88-120S192 336 177.6 280H73.6v-49.6h264c-12.8-40-22.4-72-30.4-92.8l52.8-9.6c3.2 6.4 6.4 19.2 12.8 35.2 4.8 16 9.6 30.4 12.8 40 1.6 6.4 4.8 16 9.6 28.8h249.6v49.6h-107.2c-14.4 57.6-32 108.8-54.4 153.6-22.4 43.2-49.6 83.2-83.2 116.8 32 25.6 72 49.6 115.2 72 25.6 12.8 41.6 19.2 41.6 19.2l-24 54.4z m-300.8-416c12.8 49.6 30.4 94.4 52.8 132.8 20.8 38.4 46.4 73.6 76.8 104 28.8-30.4 54.4-64 72-102.4 19.2-38.4 35.2-83.2 46.4-132.8H232z"
          fill="#ffffff" p-id="5289"></path>
</svg>