<?xml version="1.0" standalone="no"?><!DOCTYPE svg PUBLIC "-//W3C//DTD SVG 1.1//EN" "http://www.w3.org/Graphics/SVG/1.1/DTD/svg11.dtd"><svg t="1716947477086" class="icon" viewBox="0 0 1024 1024" version="1.1" xmlns="http://www.w3.org/2000/svg" p-id="4481" xmlns:xlink="http://www.w3.org/1999/xlink" width="200" height="200"><path d="M306.712895 359.431046c-1.526606 1.58767-1.760528 3.862547-2.244345 5.898804-15.275919 64.256939-15.644653 105.772154-14.941475 160.389871 0.414297 32.201982 2.425189 64.776455 10.891039 95.720514 6.398591 23.388066 26.76116 61.980183 32.413358 70.248279 6.163728-11.60455 21.246121-8.337145 25.527192-6.67432 1.121233 0.435905 2.170128 1.128279 3.323303 1.391795 1.612095 0.368264 1.981299 2.580668 3.552059 2.515376 2.075244-0.086429 4.361394 3.6352 5.5296 4.850848 1.029637 1.071442 2.311985 1.934796 3.180506 3.118033 10.832793 14.760631 13.239662 39.90265 13.335017 43.262121 4.271207 2.191266 10.901372 6.578026 14.631457 8.246018 17.671516 7.90171 28.645695 11.183207 42.149343 15.442672 41.399193 13.058818 90.314451 25.032572 133.474642 14.753115 50.618481-12.055956 90.449262-55.389475 106.08593-103.792733 4.545527-14.071075 7.427288-32.684859 5.784191-47.522995-1.842261-16.635303-7.670606-33.308653-9.825233-50.122451-2.800499-21.854884-7.762202-33.449571-1.577336-74.472044l3.098774-25.994569 4.430914-42.850642c2.579728-10.782532 11.721512-44.153659 13.515861-50.220155 3.165006-10.7008 4.569952-21.916888 5.762583-32.912675 1.777908-16.396213-1.039031-31.562686-5.754128-47.217203-2.400763-7.971229-5.411229-16.250598-9.223986-23.86014-2.840895-5.669578-9.756653-17.938789-16.531493-19.792793-2.659582-0.728073-5.237431-1.939024-8.117784-1.388976 0.038048-1.954525 0.832352-3.524815 1.394613-5.130334 1.637461-4.675171 4.221886-9.019655 7.602965-12.42328 3.438855-3.462341 7.418363-6.582723 12.392749-8.203743 2.221328-0.723846 4.537541-1.564653 6.735853-1.856822 2.259846-0.300154 4.445945-0.992059 6.74243-1.1776 3.132594-0.252712 5.815193 0.790547 8.648572 1.745027 1.869974 0.629901 3.356653 1.985996 5.313057 2.397475 0.49415 0.103809 1.061108 0.729952 0.901402 1.477754-0.258818 1.21236 0.480059 2.190796 0.743574 3.166885-6.62218 0.945086-13.476404-1.267787-19.897071 1.667523 0.73465 1.813607 1.522378 3.692976 3.32706 4.021783 1.325094 0.241908 2.38996 0.816851 3.58447 1.220815 1.916007 0.64822 3.782224 1.558077 5.83727 1.701813 0.950253 0.066701 1.934796 0.227817 1.695236 1.324624-0.178965 0.822018-0.39269 2.083699-1.829578 1.988345-1.939494-0.127765-3.885094 0.49509-5.75084 0.382356-5.531949-0.332565-11.105703 1.248998-16.597725-0.371083-0.151721-0.045094-0.354172 0.081732-0.766121 0.189299 2.869549 3.830606 5.793585 7.405211 8.323053 11.239105 1.428903 2.164961 3.656807 3.864426 4.135927 6.679956 0.093006 0.549108 0.572594 1.908022 1.411992 1.523317 1.543985-0.706936 3.19178 0.002818 4.702885-0.761894 2.356139-1.193101 4.953717-1.795758 7.400514-2.817878 3.273042-1.367839 6.121453-3.232176 8.236154-5.969263 1.904264-2.464646 3.913277-4.801057 5.413578-7.701137 1.767105-3.416308 2.700917-6.957094 2.502224-10.39454-0.212785-3.676066-0.44342-7.511839-2.027802-11.14422-1.633233-3.742767-3.763905-7.169409-6.477975-9.982591-2.727692-2.826804-6.691229-4.223765-10.397357-5.593013-7.794143-2.879413-15.586877-2.555772-23.367399 0.39316-6.978231 2.64455-12.815501 6.906363-18.119633 12.024015-4.316301 4.16364-8.627905 8.332917-12.971919 12.467904-1.576866 1.50124-3.614062 1.125461-4.429035-0.829064-0.319883-0.766591-0.961057-1.214708-1.423266-1.976602 1.179949-2.32138 2.181402-4.560088 3.813696-6.45167 0.726194-0.841277 0.934752-1.449101-0.592793-2.156506-3.678415-1.702752-6.804903-4.31865-9.892873-6.94582-2.972418-2.528998-5.899743-5.135031-9.059112-7.412257-3.337394-2.4064-7.131361-4.135927-10.605446-6.319677-2.079002-1.306305-4.291875-2.43975-6.308404-3.923141-2.331714-1.714965-5.142077-2.915582-7.908286-3.862547-2.443978-0.83658-4.62444-1.976132-6.811949-3.305923-2.766679-1.681615-5.569057-3.573666-8.553218-4.592969-4.594848-1.56982-8.650921-4.2496-13.304954-5.712793-2.203949-0.693314-4.543648-1.390385-6.705791-2.417203-1.921174-0.912206-4.169277-1.259332-5.906319-2.408749-3.95931-2.620125-8.597842-2.934371-12.940448-4.111501-4.203567-1.139552-8.580462-1.764756-12.931523-2.381035-3.724917-0.527501-7.341798-2.018877-11.065776-2.300242-7.335692-0.555684-14.644139-1.427494-22.065791-1.122172-11.119325 0.458451-22.259787-0.235332-33.334488 1.836623-4.533783 0.848323-8.876859 2.380565-13.573637 2.815531-6.981519 0.646341-13.337365 3.992191-19.885328 6.438517-2.318561 0.866172-4.568073 2.045182-6.973064 2.549666-2.459009 0.515288-4.861182 1.202495-7.074995 2.259376-6.176881 2.949402-12.331684 5.942958-18.207941 9.504411-6.521189 3.952264-13.523846 7.080631-19.603494 11.803244-4.029299 3.130246-8.483699 5.725475-12.126414 9.343766-3.867244 3.84047-6.647545 8.568719-10.135721 12.730011-1.866217 2.226026-6.772961 4.304088-7.147333 7.415075L306.712895 359.431046z m309.080309 128.283244" fill="#9CCFF3" p-id="4482"></path><path d="M373.867097 724.834172c-0.628961-3.07247-1.67316-6.133666-3.161247-9.013078-3.180037-6.146349-5.374591-9.42127-10.148874-14.910004-4.730598-5.439413-14.350561-10.688587-19.021974-2.250451-1.310062 2.366473 0.157828 7.753747 3.178158 8.757078 1.14331 0.380007 2.002437 1.338716 2.545908 2.297424 3.728206 6.576617 6.947699 13.361321 7.709593 21.07749-1.186525-0.670297-4.950899-2.999662-5.779964-3.713174-7.329116-6.307934-23.358943-23.217086-32.90422-11.22971-9.143193 11.482422 15.251024 17.113013 22.075655 19.274216 5.331846 1.688661 9.194393 5.687897 12.985072 9.607751 2.52571 2.61167 3.890261 6.053813 6.465761 8.746745 2.830092 2.960675 5.042495 6.09233 9.481864 7.224836 2.339229 0.59702 3.460932-0.047912 4.965461-1.148007 2.142884-1.567002 4.002525-3.102532 4.552103-6.087633 0.918782-4.988947 1.206253-12.504543-0.049791-17.479398-0.940389-3.72116-2.118928-7.3728-2.893505-11.154085zM604.60389 781.056c-3.179567 1.581094-9.963802 3.573666-11.987376 4.441248 0.234862 2.172477-0.93851 4.178202-1.753483 4.757372-2.348154 1.668932-6.295251 5.197974-6.60527 9.243244s0.68251 6.97964 4.719325 8.360631c5.146305 1.760059 7.118679 0.197754 11.280441-2.812242s6.191442-6.298539 9.616205-9.653314c1.438767-1.409644 2.967251-2.271589 4.649806-3.059787 1.316169-0.616279 4.708051 0.491332 4.417291 1.250408-0.605945 1.580624 1.106202 2.231193 0.994877 3.191779-0.150312 1.298319-2.018407 1.391794-2.759633 2.481556-0.202451 0.297806-1.189813 1.754422-1.328381 1.838033 3.563332 6.831677 14.367002 16.069754 23.919794 19.500155 0.99018 0.710224 2.198312 0.840338 3.434158 1.026348 6.429123 1.336837 10.15451-4.270738 10.228727-6.189563 0.13575-3.502268-0.487574-7.28731-3.307332-9.945952-4.940565-4.657791-8.405725-8.013974-18.341344-13.582562s-24.113791-5.42767-27.177805-10.847354z" fill="#DEC4A1" p-id="4483"></path><path d="M406.132492 386.979934c-1.541637-1.046547-3.087031-2.309167-4.816088-3.22513-4.26604-2.261255-8.525974-3.759207-13.644565-4.279663-3.802422-0.386583-9.347523 0.85396-12.659553 2.320441-0.317064 5.248235 1.360323 15.190429 3.722099 20.993409 0.862415 2.118928 1.683494 3.831545 5.158987 5.107317 3.148565 1.155523 4.417292-1.214708 4.035876-2.571743-1.112778-3.961659-1.304426-6.338466-1.53647-9.587082-0.142327-1.987406-0.087369-7.686106 0.694723-9.531186 0.813563-1.17713 2.268771-2.072426 3.146686 0.067171 0.185541 1.106202-0.39175 3.103472-0.432616 5.54651-0.087839 5.220051 0.667009 12.203919 3.184264 17.009673 1.359383 2.59476 2.878004 4.173035 8.058128 2.690584 2.606033-0.745923 1.626657-7.524991 1.606929-8.364859-0.067171-2.886928-0.026305-5.00069 0.37578-7.872587 0.623325-4.45487 2.830092-8.490275 3.10582-8.302855z" fill="#FFFFFF" p-id="4484"></path><path d="M401.466246 443.189079c-0.424161 2.537453 0.169571 6.777659 2.213813 8.351237 4.260404 3.279618 9.442877 6.050055 13.868154 8.467728 3.769072 2.059273 3.846106 2.222738 6.24593 1.731406 3.585409-0.73418 12.893475-3.287604 15.999296-10.7365C430.737615 436.374312 420.064059 427.556169 407.692448 423.888088c-4.11385-1.219406-8.496851-1.534121-12.474481-0.51153-10.356961 2.663339-13.187053 13.367428-13.957402 17.105497-0.675464 3.2768-0.963406 8.813916 1.608807 11.809351 0.386583 0.449996 0.261637 1.157402-0.077034 1.759588-0.787259 1.401189-3.920793 1.58767-5.18952 0.192118-1.475406-1.622429-1.96298-6.384029-2.023574-8.182606-0.315655-9.372888 2.025923-13.600411 3.991721-17.159045-3.188961-2.109064-6.498642-0.042275-7.921438 1.861989-3.045226 4.076272-5.824117 7.879633-6.508507 13.151354-0.702708 5.411699-1.526606 11.388007 0.873219 16.582693 1.003802 2.172477 2.080881 5.143017 4.472249 6.236066 5.29098 2.418613 10.894796 3.886503 16.840103 1.753953 5.03498-1.805622 9.009791-7.088147 8.708697-12.791076-0.246606-4.670473-0.684859-13.760117-0.537365-14.687823 0.586686-3.683112 2.588183-5.305541 5.884712-5.136911 1.828639 0.093475 2.112352 1.499361 1.536939 2.35661-1.060639 1.582503-1.163508 3.2256-1.453328 4.960763z" fill="#CC526B" p-id="4485"></path><path d="M389.367075 193.208602c2.684007-0.957769 4.716976-2.908536 7.232822-3.902943 1.935266-0.764712 2.119398-1.931039 1.158342-3.576015-1.115596-1.908961-0.748741-3.73713 0.446708-5.450686 0.652448-0.935692 0.954481-1.901916 0.548169-3.035831 0.711633-0.124947 1.650613-0.027714 1.849776-0.365446 1.459905-2.481556 3.121791-0.582459 4.53989-0.168631 2.231662 0.651039 2.034378 3.15796 3.03771 4.768645 0.635068 1.019772 1.128749 1.63793 2.470282 0.953072 3.211508-1.639809 6.493475-3.141519 9.829931-4.738114-0.278077-2.187508-2.112822-3.475494-3.067303-5.251053-1.829108-3.401747-3.878048-6.867376-7.838767-8.215017-1.981299-0.674525-4.041512-1.528015-6.224323-1.190752-3.363699 0.519046-6.577556 1.174312-9.629358 3.121791-2.74789 1.753952-4.125123 4.349182-5.620257 6.799736-2.154628 3.531861-1.770393 7.74811-1.441115 11.70789 0.243317 2.930613 0.857717 5.911956 2.707493 8.543354z" fill="#9CCFF3" p-id="4486"></path><path d="M289.310532 438.107596c-12.998224-8.159119-11.767545-10.872719-15.030253-40.304734-1.944191-17.539053-36.216719-14.073424-37.272661 5.465248-0.885431 16.40185 9.254048 57.688308 52.302444 68.779919" fill="#DEC4A1" p-id="4487"></path><path d="M287.213681 441.397549l-0.477241-0.265865c-0.314716-0.175677-0.771288-0.424631-1.43219-0.815442a38.918106 38.918106 0 0 1-1.077079-0.643523 35.22607 35.22607 0 0 1-1.289865-0.814033c-0.933343-0.612051-2.006664-1.36502-3.196477-2.394187-1.179479-1.018833-2.49142-2.348624-3.629563-4.050437-0.582928-0.841277-1.076609-1.768044-1.551031-2.728161-0.436844-0.958239-0.85396-1.96345-1.17854-2.9696-0.679222-2.027332-1.171494-4.098349-1.568411-6.213989-0.403494-2.117519-0.744983-4.288117-1.078488-6.529174-0.339141-2.240587-0.64916-4.548815-0.959647-6.930789l-0.987362-7.346496-0.130114-0.946025-0.032411-0.237211-0.007985-0.059186c-0.007516-0.057776 0.035699 0.292169 0.012683 0.115552l-0.020199-0.11884-0.081262-0.47771c-0.029593-0.207149-0.049321-0.208558-0.066701-0.263985a1.460844 1.460844 0 0 1-0.043684-0.149842c-0.064822-0.155479-0.094884-0.328338-0.162995-0.476301a5.189989 5.189989 0 0 0-0.968572-1.633233c-0.831883-0.963875-2.206767-1.817365-4.024132-2.330305-1.80844-0.503075-3.956022-0.689556-6.135545-0.499787-2.179053 0.18742-4.399442 0.743574-6.381681 1.63793-1.991163 0.883083-3.717402 2.120338-4.973916 3.511662-1.26262 1.404947-2.000088 2.962084-2.299302 4.707582-0.029123 0.22171-0.064352 0.442011-0.084551 0.668888l-0.025365 0.34243-0.007516 0.085489c0.00047-0.01691-0.006106 0.097703 0-0.026774l-0.002818 0.069519-0.010804 0.278077-0.010803 0.278078-0.007046 0.246605-0.006107 0.415706 0.003289 0.931934c0.023486 1.272954 0.106628 2.581138 0.239089 3.895428 0.256 2.632807 0.697072 5.292859 1.291274 7.90171 1.176661 5.228976 2.978994 10.251273 5.141137 14.875244 2.165431 4.629138 4.769116 8.837402 7.623164 12.504073 2.834319 3.684051 5.910077 6.840602 9.015427 9.43865 3.092198 2.616837 6.198488 4.694429 9.070386 6.345042 2.883171 1.634642 5.516917 2.878943 7.742473 3.786452 2.223207 0.915963 4.025072 1.528015 5.255281 1.940902l1.903794 0.591384-2.578319 10.007486-2.214752-0.531259c-1.436888-0.383295-3.554407-0.931464-6.19614-1.849776a74.650539 74.650539 0 0 1-9.306187-3.979038c-3.478312-1.815956-7.303281-4.125123-11.125901-7.13465-3.820272-3.005769-7.634437-6.68935-11.157372-10.996257-3.49898-4.324756-6.680895-9.273776-9.33578-14.686414-2.660521-5.412639-4.754084-11.294062-6.203655-17.461549-0.719618-3.087501-1.280939-6.248279-1.603641-9.504411-0.155009-1.629475-0.253651-3.282437-0.273849-4.976264l0.003288-1.293622 0.01691-0.697542 0.023486-0.587625 0.012683-0.278077 0.028653-0.42698 0.064822-0.76753c0.05167-0.51153 0.128705-1.026349 0.210437-1.537879 0.366385-2.047061 1.004272-4.088954 1.953585-5.959868 0.931464-1.881717 2.134429-3.591985 3.493343-5.084301 2.725813-2.997783 6.032675-5.081013 9.407648-6.495824 3.389064-1.419039 6.899317-2.196433 10.432587-2.420961 3.531861-0.22171 7.119618 0.123538 10.630811 1.284227 1.752543 0.588095 3.485828 1.374884 5.11953 2.449145 1.631354 1.059699 3.160778 2.421431 4.410716 4.02789 0.635068 0.794774 1.171494 1.669872 1.652022 2.557651 0.457982 0.899993 0.855839 1.824411 1.14284 2.761043 0.158767 0.466906 0.263046 0.935692 0.382356 1.403537l0.15454 0.804169c0.046972 0.263046 0.101461 0.577292 0.108506 0.691435l0.054958 0.480998 0.013622 0.120249 0.028184 0.235333 0.005166 0.060124 0.019729 0.241909 0.078914 0.963405a1803.737483 1803.737483 0 0 1 1.105732 14.331303c0.339611 4.356228 0.7168 8.307083 1.406825 11.203405 0.164873 0.736528 0.37484 1.370187 0.579171 1.976133 0.229226 0.575883 0.446708 1.121233 0.720088 1.593776 0.509651 0.967163 1.140961 1.794818 1.854004 2.552014 0.69942 0.758136 1.474466 1.41669 2.164022 2.002907a27.447897 27.447897 0 0 0 0.992528 0.805108c0.310018 0.248015 0.595611 0.466437 0.85349 0.658554 0.496969 0.381886 0.944147 0.700829 1.235846 0.911736l0.442481 0.319882-4.196521 6.578966z" p-id="4488"></path><path d="M583.572433 776.112147c4.456749 20.836051-8.261989 28.191941 2.74836 40.616161 8.497321 9.588492 23.448191 7.947273 39.759383 13.629534 15.002539 5.226628 22.611611 3.325651 28.466261-5.619787 15.154261-23.154143-34.749299-49.190517-37.911956-59.174517" fill="#DEC4A1" p-id="4489"></path><path d="M588.418114 775.127604l0.159706 0.531258c0.099582 0.310018 0.265394 0.961527 0.455633 1.736573 0.35793 1.528015 0.847383 3.811817 1.05876 6.802554 0.10287 1.492316 0.165343 3.159839 0.084081 4.957945-0.077505 1.795288-0.264455 3.725387-0.5477 5.699171-0.288411 1.968617-0.696132 3.982796-1.024 5.889878-0.319413 1.906613-0.573534 3.679824-0.508242 5.081013 0.062473 1.417629 0.386114 2.445387 1.084595 3.747934 0.356991 0.642583 0.833292 1.325563 1.419038 2.039076 0.147024 0.178495 0.294048 0.35887 0.457043 0.539244l0.11884 0.13622 0.059655 0.06811c0.036639 0.041806-0.225468-0.247545-0.094884-0.104279l0.041335 0.043215 0.328338 0.345717c0.538305 0.583398 0.628961 0.604536 0.932873 0.894826 0.652448 0.570716 1.389916 1.076609 2.174356 1.62055a46.082818 46.082818 0 0 0 2.598048 1.665644c1.912719 1.124051 4.1984 2.257497 6.773431 3.009997 1.284228 0.387053 2.626701 0.686738 4.016147 0.938979 1.387567 0.263046 2.808484 0.51153 4.258994 0.750621l4.436081 0.727133c1.50265 0.264455 3.031134 0.512939 4.57465 0.811685 1.544455 0.302972 3.107699 0.607824 4.67611 0.996286 0.39269 0.088778 0.78444 0.193057 1.1776 0.294987l1.110899 0.286532 1.086004 0.292169 0.973739 0.23909c2.62905 0.616279 5.275009 1.123582 7.605314 1.192631 1.164448 0.043684 2.245754-0.043215 3.179567-0.230165 0.943677-0.178026 1.700404-0.491802 2.357548-0.832822a9.339068 9.339068 0 0 0 1.794349-1.303956l0.219361-0.202451c0.072807-0.075156 0.143266-0.15313 0.219362-0.224059 0.152661-0.133402 0.299684-0.314246 0.453284-0.465497a19.9168 19.9168 0 0 0 0.913145-1.106672c0.154539-0.197284 0.308139-0.404903 0.459861-0.627552 0.154539-0.209497 0.303912-0.44436 0.455633-0.674525l0.113673-0.171919c0.023017-0.03476-0.106158 0.164404-0.03382 0.0512l0.036169-0.058716 0.072338-0.117901 0.144205-0.235332 0.065292-0.107567 0.025365-0.05026 0.259288-0.49462a9.615736 9.615736 0 0 0 0.770818-2.209116c0.29029-1.428903 0.256-2.932022-0.189299-4.712279-0.424161-1.769923-1.258862-3.718811-2.326547-5.661593-1.066745-1.947479-2.386672-3.871472-3.806649-5.715141-2.861094-3.689218-6.128969-7.023794-9.220228-10.093915-3.116154-3.059317-6.07495-5.88753-8.670179-8.51658-2.603684-2.622473-4.850378-5.041086-6.658819-7.206048-0.90469-1.082246-1.704161-2.097321-2.378686-3.057908a33.582972 33.582972 0 0 1-0.931934-1.380991c-0.27244-0.446708-0.577292-0.840807-0.651508-1.349519-0.168161-1.000514 0.243317-2.136778 0.852081-2.90102 0.142327-0.188829 0.269152-0.351354 0.427449-0.500257 0.152191-0.146554 0.254591-0.25553 0.394099-0.35887 0.253651-0.195875 0.386114-0.283714 0.386114-0.283714s0.163934 0.001409 0.47818-0.020198l0.514348-0.03429 0.612991-0.057776c0.907978-0.100521 1.82676-0.275728 2.470283-0.122598 0.329277 0.069519 0.497908 0.305321 0.774106 0.52938a28.178789 28.178789 0 0 0 0.925828 0.760014c0.704587 0.549578 1.568411 1.197328 2.581137 1.918356 2.025453 1.445813 4.632895 3.19084 7.625043 5.306951 2.996844 2.114701 6.380272 4.601894 9.976954 7.57713 3.602319 2.976646 7.450305 6.384029 11.318488 10.555655 1.932448 2.090275 3.862547 4.388169 5.669108 7.049629 1.796697 2.660051 3.467508 5.725475 4.569952 9.395905 0.532668 1.832396 0.923009 3.819332 1.02447 5.90585 0.109916 2.083229-0.057776 4.261343-0.544411 6.372286-0.473483 2.115171-1.267317 4.142503-2.249042 5.985233l-0.378129 0.68157c-0.130114 0.230635-0.294048 0.498848-0.44248 0.744514l-0.195876 0.314246-0.150781 0.231105-0.22171 0.34102-0.196345 0.285592c-0.262106 0.380947-0.521394 0.760484-0.810745 1.142371a25.639457 25.639457 0 0 1-0.879325 1.141431c-1.217996 1.512514-2.675552 3.024088-4.436081 4.340727-0.42604 0.335853-0.90422 0.641174-1.360323 0.953071-0.480998 0.294987-0.95589 0.589974-1.465071 0.847384-0.995817 0.541123-2.057394 0.980316-3.126488 1.346231-2.147582 0.713512-4.348712 1.062517-6.40141 1.123112-2.062092 0.070459-4.001116-0.099582-5.827875-0.368734-3.659626-0.566018-6.873952-1.558547-9.961923-2.722055l-1.164917-0.447178-1.039971-0.427449-0.304381-0.123068-0.236272-0.101461-0.472073-0.203391c-0.315185-0.135281-0.628961-0.27338-0.949784-0.399735a68.218128 68.218128 0 0 0-3.894018-1.462723c-2.647369-0.892477-5.383985-1.628066-8.178378-2.250922a181.804624 181.804624 0 0 0-4.236918-0.888719 87.101064 87.101064 0 0 0-4.335559-0.789607c-2.929204-0.467376-6.012947-0.804169-9.144132-1.696646-1.562305-0.457982-3.124609-1.076609-4.620213-1.886884a22.378628 22.378628 0 0 1-4.194642-2.963494c-0.650569-0.58011-1.512983-1.423266-1.828639-1.787303l-0.325049-0.349005-0.215604-0.235332-0.095824-0.111795-0.191648-0.224059a28.733064 28.733064 0 0 1-0.753438-0.913145 25.95887 25.95887 0 0 1-2.691523-4.122774c-0.786789-1.500771-1.424206-3.150914-1.807031-4.837695-0.397857-1.683024-0.549578-3.372154-0.538305-4.922246 0.036169-3.121321 0.600308-5.627772 1.10855-7.742473 0.521394-2.117519 0.994877-3.905292 1.369718-5.543692 0.780683-3.247677 1.106672-5.936382 1.221284-8.224881 0.048851-1.138613 0.052609-2.163083 0.031472-3.061666-0.026774-0.897644-0.079853-1.666114-0.122598-2.293196-0.046503-0.61487-0.078914-1.026818-0.129175-1.429373l-0.060594-0.551457 9.689013-1.966737z" p-id="4490"></path><path d="M531.671134 316.931758m-67.938173 0a67.938172 67.938172 0 1 0 135.876345 0 67.938172 67.938172 0 1 0-135.876345 0Z" fill="#FFFFFF" p-id="4491"></path><path d="M604.597314 317.058114l-0.040397 1.223633-0.049321 1.50077c-0.014561 0.3072-0.009864 0.598899-0.042275 0.984544l-0.097233 1.219875c-0.079383 0.855839-0.129174 1.846488-0.263046 2.870018-0.139508 1.021182-0.277607 2.137717-0.458451 3.338804-0.229695 1.19404-0.439193 2.483905-0.737938 3.844697l-0.498847 2.096382c-0.088308 0.359339-0.168161 0.725725-0.267274 1.093049l-0.323171 1.111369-0.679691 2.310106-0.827655 2.391369c-0.266804 0.822018-0.609233 1.636991-0.945556 2.47498-0.342429 0.83564-0.664191 1.701343-1.0752 2.549196-1.516272 3.44684-3.475494 7.032719-5.890349 10.642555a73.218349 73.218349 0 0 1-8.726547 10.692814c-3.41349 3.459523-7.329585 6.785644-11.784924 9.714848-4.450172 2.93531-9.423618 5.465717-14.789285 7.508081-5.368954 2.040015-11.190723 3.418187-17.245945 4.122304-0.754848 0.110385-1.51862 0.152661-2.283802 0.212786-0.765182 0.055428-1.532242 0.12025-2.30259 0.165812l-2.32185 0.057777-1.166327 0.027244c0.050261 0.001879-0.233453 0.001879-0.253651 0.000469l-0.137629-0.002818-0.275259-0.005637-0.550987-0.011273-2.211934-0.046503c-0.352763 0.001879-0.792895-0.045563-1.187464-0.06764l-1.217997-0.08549c-1.650613-0.08502-3.203523-0.315655-4.798708-0.505894-3.165006-0.481938-6.356316-1.091171-9.496895-2.016998-1.58673-0.407721-3.131655-0.975618-4.701945-1.489497-0.775516-0.283714-1.543046-0.594672-2.317622-0.892477l-1.16069-0.454224-1.140022-0.508712c-6.112059-2.664279-11.932888-6.264719-17.216822-10.644903-2.650187-2.183281-5.117182-4.611288-7.466276-7.166591-2.345336-2.562818-4.479295-5.336073-6.466231-8.226289-1.977072-2.900081-3.701901-5.983354-5.261387-9.157755-1.550561-3.181916-2.811303-6.510855-3.896367-9.899919-1.071442-3.39705-1.830517-6.892272-2.411097-10.416616l-0.35793-2.656294c-0.131053-0.884492-0.166752-1.778848-0.253652-2.668506-0.077035-0.890598-0.155949-1.781666-0.169101-2.675553l-0.08502-2.807075 0.043215-2.500815 0.010803-0.625203c0.002349-0.206209 0.005167-0.412888 0.024426-0.652448l0.091127-1.384749 0.094884-1.385218c0.029123-0.464558 0.063883-0.924418 0.123538-1.362671l0.318943-2.666628c0.52891-3.539846 1.238194-7.058554 2.263134-10.486136 1.038561-3.419596 2.256558-6.786114 3.769071-10.012183 1.521439-3.218084 3.213387-6.351149 5.163685-9.306187 7.724154-11.890143 18.917226-21.126811 31.256426-26.639501l1.152704-0.525153 1.173373-0.470664c0.783031-0.309079 1.559956-0.63084 2.344866-0.924888 1.589079-0.535017 3.154202-1.123582 4.7616-1.551501 3.182385-0.966224 6.420198-1.612565 9.634524-2.128323 1.614914-0.206679 3.218084-0.454224 4.825483-0.550047 0.80276-0.058246 1.602231-0.142327 2.401233-0.175678l2.391839-0.070928 0.59608-0.01691 0.297336-0.008455 0.148903-0.003758c0.020198-0.003288 0.363097 0.004697 0.282774 0.003288l1.097747 0.028653 2.18422 0.057307c0.786789 0.046033 1.616793 0.114613 2.419083 0.173328 0.806048 0.063883 1.625717 0.113204 2.381035 0.224998 6.16044 0.727604 12.08273 2.141945 17.540932 4.226584 5.469475 2.061152 10.469695 4.754554 14.954627 7.772536 4.482583 3.030664 8.41465 6.446033 11.817336 9.999031a73.991046 73.991046 0 0 1 8.629783 10.95633c2.37305 3.683112 4.280132 7.329585 5.748962 10.822459 0.400675 0.858657 0.712103 1.733754 1.044198 2.578789 0.325519 0.847383 0.657615 1.671281 0.914084 2.501284l0.796654 2.414386 0.649159 2.329365c1.642158 6.068374 2.149461 11.004242 2.343927 14.347273 0.145145 1.67316 0.108037 2.960675 0.139508 3.825908l0.022547 1.312881-0.001409 0.126826z m-9.977894-0.126356l-0.039457-1.135325c-0.041806-0.747802-0.019259-1.862459-0.171919-3.304044-0.210437-2.88364-0.714451-7.128073-2.208176-12.314305l-0.586217-1.991163-0.717269-2.059743c-0.227347-0.709284-0.527031-1.410114-0.817791-2.132081-0.296866-0.719149-0.569776-1.46695-0.928646-2.195963-1.307244-2.971009-3.004829-6.05945-5.092286-9.170437a63.236697 63.236697 0 0 0-7.54425-9.217409c-2.949402-2.982283-6.33095-5.852301-10.176117-8.373314-3.840939-2.52665-8.129527-4.697248-12.748331-6.458715-4.622092-1.759119-9.634055-2.936719-14.853636-3.547362-0.662782-0.099582-1.280939-0.127295-1.91225-0.178025l-1.91131-0.144676-2.18422-0.053079-1.097747-0.026774-0.876506 0.019729-2.03156 0.040866c-0.678752 0.021138-1.357035 0.091127-2.038605 0.133401-1.36596 0.063413-2.724873 0.270561-4.09647 0.428859-2.727222 0.418055-5.477461 0.932873-8.181196 1.733285-1.367369 0.344778-2.695281 0.841747-4.049967 1.277651-0.667949 0.244257-1.327912 0.513879-1.995391 0.769409l-1.000514 0.388463-0.981725 0.440132c-5.267024 2.289439-10.287442 5.39291-14.851288 9.168557-2.289908 1.881248-4.416352 3.979978-6.448382 6.181578-2.027802 2.208646-3.868183 4.603303-5.588315 7.092375-1.710268 2.499406-3.195538 5.158987-4.546936 7.892315-1.342473 2.740844-2.426128 5.610393-3.368866 8.528793-0.929116 2.925916-1.580624 5.93967-2.089805 8.978789l-0.311428 2.292257c-0.061064 0.387053-0.093475 0.757666-0.120719 1.124991l-0.094885 1.10808-0.098642 1.108551a7.210275 7.210275 0 0 0-0.032881 0.596081l-0.020667 0.625203-0.083142 2.499875 0.041336 2.194085c-0.004697 0.774576 0.054488 1.545864 0.109446 2.317152 0.064352 0.770349 0.076095 1.546334 0.180374 2.311986l0.272441 2.30259c0.457512 3.05462 1.059229 6.091391 1.941842 9.048309 0.896235 2.948932 1.937145 5.856059 3.241101 8.641056 1.312881 2.777013 2.76527 5.487325 4.449233 8.041219 6.658818 10.285094 16.348301 18.280279 26.995552 23.044697l0.994407 0.456573 1.013197 0.404433c0.676404 0.266334 1.345761 0.54676 2.023574 0.80182 1.373006 0.456572 2.720646 0.974679 4.109622 1.339655 2.745541 0.840807 5.541813 1.392264 8.317886 1.844139 1.392264 0.175207 2.800499 0.398796 4.124184 0.473013l1.004271 0.083611c0.345717 0.022547 0.642114 0.069519 1.029637 0.071868l2.211464 0.065761 0.550987 0.016441 0.274789 0.008455 0.13763 0.003758c0.070928 0.002818-0.121189-0.003758 0.021137-0.002819l1.028228-0.028183 2.046591-0.052609 2.027332-0.152191c0.673585-0.054018 1.346231-0.088778 2.009952-0.190239 5.32527-0.633659 10.437284-1.847897 15.148624-3.65164 4.722143-1.780257 9.037974-4.11338 12.913673-6.723171 3.872411-2.622473 7.269461-5.582209 10.208529-8.657027a64.061064 64.061064 0 0 0 7.447016-9.480925c2.045651-3.184734 3.690628-6.333769 4.950899-9.349872 0.348536-0.739817 0.611112-1.497483 0.897644-2.226025 0.280426-0.731361 0.569776-1.441116 0.786789-2.158386l0.686738-2.082759 0.555215-2.010422 0.266803-0.965754c0.080793-0.318943 0.143736-0.638356 0.215134-0.950254l0.404433-1.820183c0.240499-1.181358 0.400206-2.301182 0.587156-3.335516l0.350415-2.894444c0.10287-0.883083 0.11978-1.639809 0.179435-2.340638l0.069989-0.980786c0.024426-0.302033 0.01644-0.654327 0.026304-0.942737 0.009864-0.596081 0.019259-1.097277 0.026305-1.501241l0.021607-1.224572-0.001409 0.124947z" p-id="4492"></path><path d="M586.688117 883.535383l-0.248484-0.724785c0.228756-0.01691 0.456572-0.093945 0.509182-0.029123 2.306818 2.848881 6.11065 3.303105 8.831295 5.599589 2.660051 2.245284 5.806268 3.914217 8.73876 5.83774 0.130114 0.08596 0.360749 0.190239 0.3584 0.282304-0.06858 3.113806 2.705145 2.451963 4.33509 3.410672 2.998723 1.765226 6.21258 3.479721 8.530201 5.966444 1.354686 1.453798 2.806136 2.193615 4.339788 3.138231 2.129732 1.311002 3.565681 3.504617 5.752249 4.783207 0.386583 0.225938 0.732301 0.523273 1.082716 0.777395-1.423266 0.684859-2.106246 2.26924-3.646943 3.002011-1.585321 0.753908-3.143868 0.771288-4.346833-0.06764-4.272147-2.978055-9.0112-5.115772-13.547802-7.574782-6.257673-3.392822-12.410128-6.985747-18.743428-10.253622-3.260829-1.682554-6.407046-3.715053-9.469181-5.844785-3.337394-2.32091-6.971655-4.253828-10.627523-6.108301-5.345468-2.711251-10.355552-6.009659-15.459112-9.14789-3.111927-1.913189-6.38215-3.606547-9.72847-5.167912-5.237901-2.443508-10.907949-3.974811-15.678473-7.49258-1.221284-0.900462-2.875185-1.480572-4.765358-1.714495-1.913659-0.236741-4.19887-1.722011-6.254855-2.797681-2.892095-1.513923-5.869681-2.874246-8.987244-3.95978-2.204418-0.767061-4.115728-2.335472-6.2464-3.36229-4.952778-2.388081-9.919648-4.754554-14.953219-6.96367-6.132727-2.691053-12.197343-5.53007-18.309401-8.258231-6.454018-2.880822-12.881262-5.821769-19.339039-8.693666-6.120044-2.722055-12.213314-5.499538-18.324433-8.233805-2.945174-1.318048-5.888-2.665218-8.837872-3.993131-0.610172-2.575031-1.16069-5.151002 1.568411-7.007824 0.625673-0.425571 1.163978-0.556154 2.008074-0.458451 4.066877 0.471604 7.814341 1.812668 11.65622 3.188962 4.997402 1.790121 9.970848 3.684521 14.987508 5.434715 3.25895 1.137204 6.299949 2.938598 9.503942 4.320529 3.227949 1.391794 6.456837 2.76527 9.72753 4.057482 4.31818 1.70604 8.555567 3.616411 12.847912 5.390092 6.322026 2.612609 12.590033 5.381167 19.026202 7.678591 2.866261 1.023061 5.437064 3.064484 8.702121 2.907596 0.515288 1.913189 2.407809 1.368308 3.633321 1.941842 6.828389 3.196007 13.80756 6.077769 20.578172 9.38792 5.741916 2.807545 11.564154 5.485446 17.034099 8.835053 6.00778 3.678884 12.139567 7.167061 18.016294 11.043229 2.387611 1.575457 5.157108 2.598517 7.186319 4.858363 0.506833 0.564609 2.052228 1.016015 3.14058 1.405417 2.454782 0.877446 3.146217 3.551589 5.419684 4.60706zM331.273394 803.004829c1.777439-0.606884 3.317196-1.185116 4.553982-2.435523 1.164448-1.176661 2.978055-0.898114 4.360925-1.65484 1.05782-0.579171 0.643993 0.999574 1.368308 0.948374 3.992661-0.281365 7.437152 1.506407 10.92345 3.013754 5.172609 2.23636 10.725226 3.201174 16.023721 4.988947 7.490231 2.52665 14.945233 5.161336 22.377688 7.856147 7.017688 2.544499 14.056983 5.054239 20.953952 7.900301 5.526782 2.280983 11.291244 4.057013 16.624969 6.645666 4.149549 2.01465 8.422635 3.793497 12.576881 5.795464 5.267963 2.538393 10.295428 5.558253 15.759736 7.733079 3.132125 1.24665 5.872499 3.44825 8.956711 4.852257 3.570378 1.625717 6.97964 3.525284 10.452316 5.322451 1.376294 0.712572 2.356609 1.822062 3.226539 2.939538 0.58058 0.745923 1.139083 1.407295 1.944191 1.789651 3.017982 1.432661 5.735809 3.533739 9.177483 4.043391 0.752499 0.111325 0.251303-0.876037 1.27953-0.560851 1.951706 2.328426 5.01713 3.80524 7.967002 5.363317 1.82535 0.963875 4.091772 1.152235 5.655016 2.649248 1.095398 1.048426 2.273468 2.212404 2.844184 3.565211 1.072382 2.54356-0.998165 4.970628-3.751222 5.225688-4.094121 0.379068-7.029901-2.127383-10.314686-3.744176-3.161717-1.555728-6.037842-3.677945-9.780609-3.900595-1.269196-0.075156-2.42425-1.068154-3.608896-1.719662-3.474084-1.909901-7.122437-3.500859-10.674026-5.274539-2.951281-1.474466-5.931215-2.886459-8.905981-4.308316-5.022767-2.400763-10.266774-4.422928-15.066422-7.173167-5.214884-2.987919-11.006121-4.532844-16.221475-7.431046-2.217101-1.232088-4.936338-1.618202-7.040235-2.984631-3.504617-2.275817-7.616587-2.564697-11.347142-4.070165-4.412125-1.780257-8.949666-3.353365-13.334077-5.162745-3.894018-1.607398-8.102752-2.44069-11.739831-4.618804-0.997226-0.59702-1.957813-0.278547-2.922158-0.470194-3.866305-0.769409-7.285901-2.74742-10.99109-3.936764-3.062136-0.983134-5.745204-3.056499-9.156814-3.064484-1.076139-0.002818-1.856822-0.984543-2.774195-1.46742-2.672734-1.407295-6.031736-1.138143-8.291581-3.472206-0.174268-0.179905-0.589035-0.110855-0.880734-0.195405-1.922583-0.556624-3.962598-0.534077-5.473703-2.416264-1.274833-1.58767-3.708007-1.234437-5.422033-1.183707-3.280088 0.097703-5.235552-2.516785-8.084433-3.094077-0.319883-0.064822-0.816851-1.086473-0.675464-1.307714 1.146128-1.789182-0.52938-3.215736-0.569777-4.985189zM664.123185 896.366385c-0.470194 0.69895-1.984117 1.242892-0.860535 2.575971-0.684859 1.750664-3.221372-0.813563-3.453887 1.977072-4.843802-2.668976-9.874084-4.416352-14.238297-7.511839-1.28047-0.908448-2.821167-1.443464-4.226114-2.181872-6.820404-3.583061-13.741328-6.991383-20.426451-10.812124-9.200029-5.258099-18.766444-9.792352-28.297629-14.358547-4.469431-2.141006-8.867464-4.530495-13.51774-6.282569-4.398503-1.657189-8.333387-4.290466-12.683038-5.942958-5.320572-2.022165-10.10378-5.131743-15.368925-7.168939-4.526268-1.751604-8.642936-4.308316-13.109549-6.10971-2.519134-1.015545-4.916139-2.277695-7.420242-3.272573-2.001028-0.795244-3.14105-2.370231-3.160308-4.058422-0.035229-3.019861 0.884961-6.056631 3.838121-7.580418 1.102914-0.569776 2.886459-0.416646 4.0448 0.318473 3.666202 2.326077 7.789916 3.670429 11.695677 5.421564 2.779831 1.24618 5.825527 2.141945 8.517989 3.564741 6.962261 3.678884 14.173006 6.821343 21.31658 10.083112 6.245461 2.851699 12.171508 6.286796 18.355904 9.233849 4.879031 2.325138 9.516624 5.182473 14.470342 7.317843 5.315875 2.291317 10.092976 5.549798 15.346378 7.93459 2.027802 0.920661 3.661974 2.704206 5.686018 3.638958 4.049497 1.869974 7.590752 4.589681 11.561805 6.583663 1.320866 0.662782 2.754936 1.325563 3.492404 3.010466 0.331626 0.757666 1.717314 1.437358 2.669446 1.819713 3.884154 1.562774 7.385952 3.753571 10.706906 6.217277 1.959222 1.453798 4.148139 2.793923 5.060345 5.582679zM710.870664 693.356506c-0.90469-3.49804 1.139552-6.726928 1.407296-10.269592 2.059273 0.108037 3.414429-1.930099 5.581739-2.394187 1.546334-0.331156 2.978994-0.871339 4.664837-1.073791 7.084859-0.851611 13.60182 0.948374 20.088249 3.329409 2.945644 1.081776 5.744734 2.511149 8.630723 3.727266 3.064954 1.291743 5.844785 3.323772 8.610055 5.234613 1.306305 0.903281 2.83338 1.113248 4.176793 1.918826 1.91225 1.147068 3.441204 2.79956 5.452095 3.782223 2.79956 1.368308 5.250114 3.335046 8.077857 4.695839 0.93898 0.451406 1.50124 1.625717 2.649718 2.273468 1.244301 0.702708 2.613549 1.458965 4.06124 2.729101-2.381505 0.024895-2.398884 4.460506-5.475112 2.384323-1.374884 0.1024 0.244727 1.406356-0.860536 1.588609-1.269196 0.208558-2.468873-0.258818-3.363229-0.920191-1.461314-1.078958-2.996844-1.279061-4.681277-1.233967-0.254591 0.007046-0.585747-0.10193-0.760015-0.277607-1.683494-1.697585-4.221886-1.99633-5.926047-3.645065-0.330217-0.319413-0.68298-0.422752-1.155054-0.441071-2.893974-0.111794-5.354393-1.497952-7.877754-2.722995-2.435053-1.182297-4.735765-2.742723-7.624572-2.700917-3.27727 0.048851-6.051934-1.812668-9.14742-2.504103-3.044756-0.679692-5.993688-2.041424-9.054415-2.316682-2.071486-0.186011-4.207794 0.17004-6.407985-0.049321-3.584939-0.360279-7.192426-0.652917-11.067186-1.114188zM782.896382 601.799163c-0.561791 0.845974-1.503589 1.165857-1.598474 2.094503 1.254165 1.392264 2.418143 2.868139 4.287178 4.178202-2.343927-0.097703-4.191824-0.316594-5.927926-1.21189-0.534077-0.275728-1.225512-0.552866-1.846019-0.206679-2.141006 1.19451-4.281541 0.270561-6.270356-0.236271-3.832954-0.976558-7.367163-3.1232-11.480543-3.025967-2.736617 0.064822-5.025585-1.404477-7.537203-2.002437-2.869079-0.68204-5.723127-1.661417-8.855722-1.322275-2.816939 0.303912-5.494371-1.323215-8.406194-1.242892-2.053637 0.056367-4.125593-0.260228-6.156213 0.232044-2.470283 0.59796-4.94996 0.378128-7.415545 0.113673-3.018921-0.323171-4.733417-2.556242-6.043948-4.893592-0.841277-1.498892 0.839398-2.937659 1.685842-3.792558 2.280044-2.302591 4.415413-5.011963 7.818099-5.841497 3.251435-0.791956 6.453079-1.532712 9.910253-0.674995 3.08938 0.766591 6.318738 0.9728 9.436771 1.735163 3.832015 0.936631 7.537673 2.210055 11.26306 3.514481 3.978569 1.394613 7.13418 4.192294 11.272925 5.424852 3.340683 0.995817 6.538099 3.083743 9.797989 4.691611 1.896279 0.935222 3.851743 1.675039 6.066026 2.466524zM786.319266 652.396506c-0.553336 0.775046-1.352338-0.755787-1.953585 0.456103 2.458539 0.332095 1.440646 2.599457 1.080836 3.229828-0.571655 1.002862-1.686782 2.415325-3.647882 1.386157-2.944705-1.545864-6.414561-1.338716-9.511457-2.323728-2.79909-0.890598-5.83633-1.224103-8.349358-2.964433-0.200103-0.139039-0.550048-0.038517-0.813093-0.110385-3.54971-0.971391-7.043523-2.387141-10.656646-2.822107-4.28389-0.515758-8.524095-1.282349-12.776044-1.937614-3.574136-0.551457-7.052917-1.738451-10.56458-2.677432-3.801483-1.016954-3.75545-1.032455-3.63567-5.139728 0.058246-2.005255 0.884022-3.124609 2.778422-4.017556 1.55244-0.731361 2.852169-1.821123 4.622562-2.416734 2.159325-0.725725 3.983266-0.347596 6.048176-0.176616 3.056969 0.253182 6.121923 0.276668 9.139435 0.963875 0.612051 0.139508 1.223163 0.205739 1.831457 0.437314 2.297894 0.872279 4.731538 1.232088 7.110223 1.805622 1.459905 0.351824 2.854048 0.962936 3.782224 2.335471 0.883552 1.305835 2.54262 1.045607 3.793497 1.648734 3.930657 1.895809 7.497277 4.439369 11.369689 6.398121a1288.384587 1288.384587 0 0 0 8.750033 4.389578c0.736998 0.364976 1.200617 0.909387 1.601761 1.53553zM581.613681 322.351442c-0.605006 14.943824-11.667963 26.28204-26.873424 26.222855-12.360338-0.047912-27.160426-9.115009-26.246811-26.62306 0.761424-14.598106 11.618642-26.167428 27.172638-25.920353 14.532815 0.230635 25.311589 10.896206 25.947597 26.320558z" p-id="4493"></path><path d="M306.332888 365.32985c-15.275919 64.256939-13.781255 104.440484-13.078077 159.058201 0.414297 32.201982 0.583398 65.081306 10.092506 95.720514 10.911706 35.15749 21.489439 51.068947 29.175545 64.850672a7.752338 7.752338 0 0 0 1.039971 2.294605c2.570804 3.836712 5.264206 7.590752 8.048734 11.278092-0.025365 0.044624-0.052609 0.083611-0.077505 0.128705-1.310062 2.366473 0.157828 7.753747 3.178158 8.757078 1.14331 0.380007 2.002437 1.338716 2.545908 2.297424a120.769527 120.769527 0 0 1 1.651553 3.016573c-6.132727-2.972888-12.222708-6.030327-18.203714-9.297263-1.738451-1.942312-9.469651-12.774635-11.461754-16.065996-3.531861-5.833982-23.787332-36.264161-31.413784-80.112969C280.621094 565.807442 280.425688 495.559633 282.728749 463.152851 284.239853 441.894517 287.941284 394.099083 297.805505 355.111927c0 0 14.561468-54.488073 47.178216-114.151575 1.609747-3.331758 4.251009-5.823178 6.238415-8.780565 1.932448-2.877064 3.518708-6.036903 5.960807-8.61898 2.752117-2.909945 5.37553-5.97255 7.768308-9.183119 2.04753-2.74836 4.755494-4.796829 7.011112-7.315024 1.46695-1.63793 3.357123-2.914642 5.134562-4.251948 1.797167-1.352807 2.47545-3.298407 1.595185-5.096514-1.733284-3.540785-2.089806-7.345086-2.951281-11.069534-1.130158-4.886547 0.605475-9.184528 2.311516-13.526195 0.764712-1.946539 1.639809-3.848925 2.422371-5.788888 0.56367-1.398371 1.857761-2.190327 2.684477-3.404565 3.743237-5.49531 9.216-9.043611 15.331816-10.926737 3.271163-1.00756 7.174106-1.906143 10.68389-1.040911 2.945174 0.726664 5.753659 2.304 8.639648 3.38061 5.566239 2.076183 8.050613 6.725989 10.673086 11.393644 1.014606 1.807031 2.073365 3.589167 3.17487 5.490613 5.083831-0.891068 9.874084-2.784528 14.733857-4.297512 4.980022-1.550092 10.079354-2.348624 15.12044-3.484888 5.174958-1.165387 10.41145-2.059743 15.629622-3.024089 2.545908-0.470664 5.10215-1.076139 7.672015-1.180418 3.564272-0.145145 7.096132-0.660903 10.687178-0.581049 5.283464 0.117431 10.553776-0.558033 15.856029-0.459391 6.404228 0.12025 12.703237 1.031046 19.026202 1.878899 4.637593 0.621916 9.347993 0.753439 13.956932 1.519559 3.776117 0.628022 7.572903 1.307244 11.217497 2.676492 1.984117 0.745453 4.203097 0.844095 6.292433 1.334958 4.265101 1.002862 8.146906 3.03771 12.192646 4.631486 3.011875 1.186994 6.004022 2.438341 9.070855 3.46563 2.73004 0.914554 4.94996 2.727692 7.546598 3.901064 4.481174 2.024514 8.821901 4.374077 13.241072 6.549372 1.920705 0.945086 3.858319 1.97989 5.678503 3.214797 2.206767 1.497013 4.726371 2.536044 7.120088 3.75404 8.151134 4.14767 16.443655 8.013505 23.644066 13.830576 4.493857 3.630503 9.25029 6.941123 13.955053 10.303883 1.807031 1.291273 3.342561 2.945174 5.612741 3.662444 1.317578 0.416176 2.262664 0.302033 3.066833-0.576353 2.479677-2.708433 5.755538-4.458158 8.302386-7.135119 1.311002-1.378172 3.555817-1.870444 5.383515-2.753996 2.567985-1.242422 5.098862-2.571273 7.718518-3.694385 7.570084-3.247677 15.544132-3.743237 23.644535-3.319545 1.247589 0.065292 1.907083 1.14425 3.036771 1.470708 3.025028 0.874158 6.05804 1.79247 8.963758 2.994026 6.343633 2.623413 10.866143 7.225306 14.203537 13.204433 1.081776 1.938084 2.094033 3.965886 3.630503 5.726414 1.100565 1.261681 1.511105 3.290892 1.781666 5.046253 0.150312 0.977028 0.045563 2.11658 0.365446 3.036771 1.712147 4.921306 0.138099 9.64204-0.924418 14.317211-0.63178 2.779361-1.284228 5.678033-3.014694 8.119193-3.56662 5.031692-7.410848 9.760881-12.010862 13.964917-2.73051 2.495648-5.702928 4.584514-8.744866 6.482202-3.282906 2.048-7.360587 2.323728-11.411024 3.496161 4.709461 8.486517 6.974473 17.675743 9.433483 26.814709 5.493431 20.41189 4.845211 41.091053 1.26215 61.734047-1.739391 10.020639-4.931171 19.613358-7.414136 29.409468-2.018877 7.962305-4.066407 15.925079-6.438048 23.786863-0.963406 3.193189-2.425189 6.410804-3.385776 10.744954-3.777527 17.677622-3.972932 18.096617-7.261005 39.259596s-3.973872 46.630987-4.476477 52.210848c-4.482114 49.738217 25.464719 97.069563 13.536998 146.719471-3.530451 14.697218-10.801791 27.690275-18.373284 40.646224-9.330613 15.966884-19.322128 28.089541-31.820566 41.503472-2.107655 2.261725-22.475861 17.454972-33.51909 22.315215 0.258349 0.131523-4.483053 2.517255-4.890774 2.655354-2.112352 0.714451-7.629739 3.431809-8.290642 3.965416-3.423824 1.340594-8.044037 2.742723-9.653784 3.432749 0.01785 0.164404-9.122994 2.425659-13.599471 3.893548 0.010334-0.046033 0.026305-0.089717 0.036169-0.13575-5.127516 0.918312-11.860081 2.329835-16.924653 2.172007-4.904396-0.152661-9.705923 1.319457-14.577909 0.949314-5.861695-0.444829-11.695207 0.330217-17.546099 0.046033-2.567516-0.124947-4.913321-1.667993-7.436682-1.350459-5.835391 0.73371-11.463163-1.089761-17.245476-1.175251-2.568455-0.038048-5.344528-1.05829-7.978745-1.766635-6.159501-1.65578-12.437372-2.736147-18.641497-4.161292-7.292477-1.674569-14.533284-3.627684-21.885886-4.972976-5.329967-0.975149-9.921527-3.789739-15.107758-5.110605-6.324844-1.610686-12.477299-3.897776-18.708198-5.880485-4.705703-1.497483-25.041028-10.745894-33.354217-14.469871-0.121659-0.078444-0.236741-0.163464-0.363097-0.236272-3.829196-2.211464-7.78287-4.972976-11.763317-6.883347 0.211376-3.903413 0.036639-7.275567-0.759545-10.42742-0.258349-1.02353-0.535486-2.041894-0.816382-3.058847 3.695794 2.419552 7.487413 4.700066 11.322246 6.889922 0.006576 0.126356 0.011273 0.240499 0.014092 0.333505 4.271207 2.191266 10.901372 5.246356 14.631457 6.914349 17.671516 7.90171 28.645695 11.183207 42.149343 15.442671 41.399193 13.058818 90.314451 25.032572 133.474642 14.753116 50.618481-12.055956 89.117593-55.788741 104.754261-104.19153 4.545527-14.071075 7.427288-30.953923 5.78419-45.792059-1.842261-16.635303-9.268139-33.308653-11.422767-50.122452C673.885475 555.576837 669.357798 524.682569 678.282569 469.518092c3.766253-23.27815 7.249262-35.679354 7.249262-35.679354 2.579728-10.782532 11.721512-44.153659 13.515861-50.220155 3.165006-10.7008 4.569952-21.916888 5.762583-32.912675 1.777908-16.396213-1.039031-31.562686-5.754128-47.217203-2.400763-7.971229-5.411229-16.250598-9.223986-23.86014-2.840895-5.669578-9.756653-17.938789-16.531493-19.792793-2.659582-0.728073-5.237431-1.939024-8.117784-1.388976 0.038048-1.954525 0.832352-3.524815 1.394613-5.130334 1.637461-4.675171 4.221886-9.019655 7.602965-12.42328 3.438855-3.462341 7.418363-6.582723 12.392749-8.203743 2.221328-0.723846 4.537541-1.564653 6.735853-1.856822 2.259846-0.300154 4.445945-0.992059 6.74243-1.1776 3.132594-0.252712 5.815193 0.790547 8.648572 1.745027 1.869974 0.629901 3.356653 1.985996 5.313057 2.397475 0.49415 0.103809 1.061108 0.729952 0.901402 1.477754-0.258818 1.21236 0.480059 2.190796 0.743574 3.166885-6.62218 0.945086-13.476404-1.267787-19.897071 1.667523 0.73465 1.813607 1.522378 3.692976 3.32706 4.021783 1.325094 0.241908 2.38996 0.816851 3.58447 1.220815 1.916007 0.64822 3.782224 1.558077 5.83727 1.701813 0.950253 0.066701 1.934796 0.227817 1.695236 1.324624-0.178965 0.822018-0.39269 2.083699-1.829578 1.988345-1.939494-0.127765-3.885094 0.49509-5.75084 0.382356-5.531949-0.332565-11.105703 1.248998-16.597725-0.371083-0.151721-0.045094-0.354172 0.081732-0.766121 0.189299 2.869549 3.830606 5.793585 7.405211 8.323053 11.239105 1.428903 2.164961 3.656807 3.864426 4.135927 6.679956 0.093006 0.549108 0.572594 1.908022 1.411992 1.523317 1.543985-0.706936 3.19178 0.002818 4.702885-0.761894 2.356139-1.193101 4.953717-1.795758 7.400514-2.817878 3.273042-1.367839 6.121453-3.232176 8.236154-5.969263 1.904264-2.464646 3.913277-4.801057 5.413578-7.701137 1.767105-3.416308 2.700917-6.957094 2.502224-10.39454-0.212785-3.676066-0.44342-7.511839-2.027802-11.14422-1.633233-3.742767-3.763905-7.169409-6.477975-9.982591-2.727692-2.826804-6.691229-4.223765-10.397357-5.593013-7.794143-2.879413-15.586877-2.555772-23.367399 0.39316-6.978231 2.64455-12.815501 6.906363-18.119633 12.024015-4.316301 4.16364-8.627905 8.332917-12.971919 12.467904-1.576866 1.50124-3.614062 1.125461-4.429035-0.829064-0.319883-0.766591-0.961057-1.214708-1.423266-1.976602 1.179949-2.32138 2.181402-4.560088 3.813696-6.45167 0.726194-0.841277 0.934752-1.449101-0.592793-2.156506-3.678415-1.702752-6.804903-4.31865-9.892873-6.94582-2.972418-2.528998-5.899743-5.135031-9.059112-7.412257-3.337394-2.4064-7.131361-4.135927-10.605446-6.319677-2.079002-1.306305-4.291875-2.43975-6.308404-3.923141-2.331714-1.714965-5.142077-2.915582-7.908286-3.862547-2.443978-0.83658-4.62444-1.976132-6.811949-3.305923-2.766679-1.681615-5.569057-3.573666-8.553218-4.592969-4.594848-1.56982-8.650921-4.2496-13.304954-5.712793-2.203949-0.693314-4.543648-1.390385-6.705791-2.417203-1.921174-0.912206-4.169277-1.259332-5.906319-2.408749-3.95931-2.620125-8.597842-2.934371-12.940448-4.111501-4.203567-1.139552-8.580462-1.764756-12.931523-2.381035-3.724917-0.527501-7.341798-2.018877-11.065776-2.300242-7.335692-0.555684-14.644139-1.427494-22.065791-1.122172-11.119325 0.458451-22.259787-0.235332-33.334488 1.836623-4.533783 0.848323-8.876859 2.380565-13.573637 2.815531-6.981519 0.646341-13.337365 3.992191-19.885328 6.438517-2.318561 0.866172-4.568073 2.045182-6.973064 2.549666-2.459009 0.515288-4.861182 1.202495-7.074995 2.259376-6.176881 2.949402-12.331684 5.942958-18.207941 9.504411-6.521189 3.952264-13.523846 7.080631-19.603494 11.803244-4.029299 3.130246-8.483699 5.725475-12.126414 9.343766-3.867244 3.84047-6.647545 8.568719-10.135721 12.730011-1.866217 2.226026-23.396051 35.983736-31.54061 54.370642-15.628213 35.277739-28.060888 77.341123-28.545174 79.37738z m104.317417-182.898613c-1.341064 0.684859-1.835215 0.066701-2.470283-0.953072-1.003332-1.611156-0.806048-4.118077-3.03771-4.768646-1.418099-0.413828-3.079985-2.312925-4.53989 0.168631-0.199163 0.338202-1.138143 0.240969-1.849776 0.365446 0.406312 1.133916 0.104279 2.100139-0.548169 3.035832-1.19545 1.713086-1.562305 3.541255-0.446708 5.450686 0.961057 1.644976 0.776925 2.811303-1.158341 3.576014-2.515846 0.993938-4.549284 2.945174-7.232822 3.902944-1.849776-2.631868-2.464176-5.612741-2.707964-8.543355-0.328807-3.95978-0.713512-8.176029 1.441116-11.707889 1.495134-2.450554 2.872367-5.045314 5.620257-6.799736 3.051802-1.947479 6.265659-2.602745 9.629357-3.121791 2.182811-0.337262 4.243024 0.516697 6.224323 1.190752 3.960719 1.34764 6.009659 4.81327 7.838767 8.215017 0.954481 1.77509 2.789226 3.063075 3.067303 5.251053-3.335516 1.596594-6.617952 3.098305-9.82946 4.738114z" p-id="4494"></path><path d="M387.911868 253.06422c-20.632191-23.597563-71.110224-3.119912-83.965651 21.972316-14.617365 28.531552-10.847824 67.154672 6.623119 74.214635s51.392587 1.24524 67.910458-18.394892 27.751339-51.957196 9.432074-77.792059z" fill="#FFFFFF" p-id="4495"></path><path d="M384.01785 256.116492l-0.386114-0.42792-0.353233-0.387992-0.34196-0.336793-0.397387-0.400675-0.534547-0.482407c-1.508756-1.362202-3.941461-3.184264-7.626451-4.603773-3.666202-1.428903-8.61898-2.350972-14.503222-2.158855-5.872499 0.186011-12.641233 1.463662-19.66033 4.065468a78.180051 78.180051 0 0 0-10.61672 4.875743 74.526532 74.526532 0 0 0-5.259038 3.198826 67.695325 67.695325 0 0 0-5.0688 3.766253c-3.290892 2.689644-6.385908 5.781842-8.913498 9.276594-0.32505 0.431677-0.612051 0.882613-0.922069 1.324155-0.279486 0.454224-0.589505 0.898583-0.849732 1.362671l-0.406312 0.690965-0.377189 0.702709-0.17145 0.316594-0.201512 0.406782-0.403963 0.814972-0.71774 1.530833c-0.232983 0.52844-0.47771 1.052183-0.69895 1.589079-0.46033 1.065336-0.886371 2.152749-1.299728 3.250026-1.639809 4.396154-2.910415 9.030928-3.785043 13.798165-0.852081 4.770525-1.317578 9.674451-1.303956 14.59153 0.005637 4.912382 0.497908 9.852007 1.618672 14.562408 0.555684 2.354261 1.283758 4.64276 2.192205 6.796447 0.906569 2.153218 2.018407 4.160822 3.327531 5.880485 1.307714 1.718723 2.817409 3.130716 4.459097 4.058891 0.205739 0.114613 0.408661 0.234862 0.620506 0.329747 0.207149 0.107567 0.417585 0.20433 0.63178 0.287941l0.158767 0.068111 0.079384 0.034289c-0.106628-0.040396 0.037108 0.013622 0.042745 0.015971l0.462209 0.173329c0.337732 0.131993 0.534547 0.18695 0.788198 0.276198a31.969468 31.969468 0 0 0 3.300756 0.898583c4.560088 0.983134 9.447574 1.181828 14.259905 0.86993 4.822664-0.313306 9.606811-1.156462 14.196022-2.413445 4.587332-1.265908 8.99476-2.932022 13.066803-4.998342 4.073923-2.060213 7.802128-4.530026 11.039942-7.315963a42.476741 42.476741 0 0 0 4.446414-4.427626l0.475362-0.556154 0.550517-0.671236c0.370143-0.452345 0.658084-0.820139 0.994877-1.248529a83.940286 83.940286 0 0 0 1.919296-2.566576c4.930231-6.923273 8.605358-14.184279 10.899023-21.16251 2.373519-6.960851 3.358532-13.627655 3.348668-19.454121-0.009394-5.838679-1.033394-10.828095-2.35473-14.750767-1.316639-3.933945-2.866261-6.835905-4.005813-8.7552a31.926253 31.926253 0 0 0-0.774106-1.262151 21.715376 21.715376 0 0 0-0.587156-0.902341c-0.156888-0.230635-0.276198-0.408191-0.35793-0.530319z m7.920499-5.907729l0.607823 0.865703a30.837431 30.837431 0 0 1 0.729013 1.074261 40.386936 40.386936 0 0 1 0.965754 1.507816c1.422796 2.297424 3.387185 5.801571 5.097454 10.59887 1.715435 4.780389 3.085622 10.896206 3.229827 17.931273 0.167692 7.026143-0.952602 14.913292-3.569908 22.977057-1.33167 4.024602-3.025497 8.094297-5.094165 12.133461a87.529923 87.529923 0 0 1-7.352132 11.939934 96.854429 96.854429 0 0 1-2.207237 2.894913 90.601923 90.601923 0 0 1-1.172903 1.442995l-0.557093 0.66607-0.662782 0.762833a52.994349 52.994349 0 0 1-5.603347 5.472293c-4.006283 3.395171-8.518928 6.227141-13.301196 8.562613-4.788844 2.330305-9.862341 4.168807-15.119031 5.487795-5.25622 1.319457-10.690466 2.160734-16.239795 2.40546-5.54651 0.233923-11.218906-0.079383-16.917607-1.428433a41.942664 41.942664 0 0 1-4.281072-1.266378c-0.364976-0.133872-0.793365-0.285593-1.066745-0.399736l-0.458451-0.182723-0.186011-0.075625-0.147024-0.064822-0.293578-0.130114a14.812301 14.812301 0 0 1-1.154114-0.555215c-0.382826-0.189299-0.746393-0.405372-1.110899-0.620976-2.914642-1.742679-5.243068-4.105394-7.075464-6.612316-1.836624-2.519134-3.223251-5.20549-4.311134-7.926605-1.086473-2.724404-1.897688-5.490143-2.496587-8.26105-1.199207-5.544631-1.624308-11.100536-1.578275-16.567662 0.055428-5.469945 0.639295-10.856279 1.641688-16.09324 0.997226-5.237901 2.427538-10.329248 4.276374-15.188551 0.465967-1.213299 0.946965-2.416264 1.466481-3.598092 0.250363-0.594672 0.526092-1.1776 0.790077-1.763816l0.845504-1.769453 0.409131-0.812624 0.20433-0.405373 0.256939-0.482877 0.480059-0.892007 0.507773-0.867112c0.331156-0.583398 0.704117-1.127339 1.054532-1.69007 0.374371-0.539714 0.732771-1.093519 1.121703-1.614444 3.064015-4.221417 6.624528-7.753277 10.309049-10.841717 7.421182-6.12756 15.367985-10.53076 23.130187-13.581152 7.76596-3.044286 15.37785-4.751266 22.350914-5.140199 6.968367-0.420873 13.284286 0.58011 18.257262 2.393248 4.994583 1.797167 8.556976 4.315361 10.73556 6.208352l0.773167 0.674055 0.693314 0.6656 0.587625 0.574474 0.377189 0.398326 0.8704 0.926767 0.187421 0.268213z" p-id="4496"></path><path d="M465.563009 377.068741c-1.212829-16.863589-20.054429-27.569556-36.222356-30.830385-4.476007-0.902811-7.684697-1.478694-13.587728-1.91084-5.195626-6.931728-15.517358-6.643317-18.323964-6.975883-2.692932-0.318943-8.6528 0.458921-11.164418 2.870018-1.39931 0.056837-2.7648-0.335853-4.203097-0.867112 0 0-5.251053-0.930525-10.096264-1.350928-9.023883-0.262106-20.168572 1.916477-25.007677 12.261226-2.674143 5.716081-4.315361 8.897527-4.315362 8.897526-0.320352 1.24665-0.783501 2.702796-1.060638 4.193703-0.85349 4.592969 0.01785 8.92618 1.698994 13.259391 1.039031 2.677431 2.298833 5.043905 4.585923 6.746187 3.606077 2.684947 6.686062 3.349607 11.282319 2.504573 0.202451 3.650231 1.46836 7.044462 2.571743 10.465937 1.889703 5.859817 4.008631 11.616763 7.413197 16.853255 1.090231 1.676448 4.309725 6.764037 4.859772 8.365329-0.998165 0.425101-6.660697 0.717739-10.408631 6.374165-5.911017 8.919134-6.705791 14.782239-7.505262 18.496822-3.026437 14.065439 4.16364 23.848396 12.42422 27.999824 7.83313 3.936763 25.125578 5.637167 31.458877-8.287355 14.335061 7.505262 28.371846 4.956066 36.156125 0.953072 14.66058-7.539552 15.511251-20.37807 16.121424-27.15244 0.269622-2.995905-0.279956-6.057571-0.351355-9.093872-0.090657-3.82215-0.369673-7.599677 0.254591-11.477255 3.802892-23.615883 14.76298-23.615883 13.419567-42.294958z m-41.768866 84.670239c-2.399354 0.491802-2.476859 0.327868-6.24593-1.731406-4.425277-2.417673-9.60775-5.18811-13.868154-8.467728-2.044242-1.573578-2.638444-5.813314-2.213813-8.351237 0.28982-1.734694 0.39269-3.377791 1.454268-4.960763 0.575413-0.856778 0.291229-2.262664-1.53694-2.356609-3.296998-0.168631-5.298026 1.453798-5.884712 5.13691-0.147494 0.927706 0.29029 10.016881 0.537366 14.687824 0.301563 5.702928-3.673717 10.985453-8.708698 12.791075-5.945306 2.13255-11.549123 0.664661-16.840102-1.753952-2.391839-1.09305-3.468917-4.063589-4.47225-6.236066-2.399824-5.195156-1.575927-11.170994-0.873218-16.582694 0.684389-5.271721 3.463281-9.075083 6.508506-13.151354 1.422327-1.904264 4.732477-3.971053 7.921439-1.861989-1.965328 3.558635-4.307376 7.786158-3.991722 17.159046 0.060594 1.798576 0.548169 6.560176 2.023575 8.182605 1.268727 1.395552 4.40273 1.209072 5.189519-0.192117 0.338672-0.602187 0.463618-1.309593 0.077035-1.759589-2.572683-2.995435-2.284272-8.53255-1.608807-11.809351 0.770349-3.7376 3.60044-14.442158 13.957401-17.105497 3.97716-1.022591 8.360631-0.707875 12.474481 0.51153 12.370672 3.66855 23.044228 12.486694 32.100052 27.114863-3.10582 7.448895-12.413886 10.002319-15.999296 10.736499zM402.651361 403.155376c0.019728 0.839868 0.999105 7.618936-1.606928 8.364859-5.180125 1.482451-6.699215-0.095354-8.058128-2.690584-2.517255-4.805754-3.272103-11.789622-3.184265-17.009673 0.040866-2.443039 0.618158-4.440308 0.432617-5.54651-0.877916-2.139596-2.332653-1.243831-3.146686-0.067171-0.782092 1.844609-0.83658 7.54331-0.694723 9.531186 0.232044 3.248617 0.424161 5.625424 1.536469 9.587082 0.381417 1.357035-0.88778 3.727736-4.035875 2.571743-3.475494-1.275772-4.296572-2.988389-5.158987-5.107317-2.361776-5.80298-4.039163-15.745174-3.722099-20.993409 3.312029-1.466481 8.85713-2.707494 12.659552-2.320441 5.118591 0.520455 9.378525 2.018407 13.644565 4.279663 1.729057 0.915963 3.274451 2.179053 4.816088 3.22513-0.275728-0.18695-2.482495 3.847985-3.10582 8.303325-0.402084 2.871428-0.44295 4.985189-0.37578 7.872117z m20.553278-14.263662c-7.983912-3.366987-13.292272-7.063721-20.433028-11.772242-3.509314-2.313864-8.341372-4.543648-12.700418-4.906276-5.063633-0.420873-9.218818 0.098172-14.006723 2.107655-3.990312 1.674569-7.421651 3.438385-11.799487 4.004874-3.459523 0.447648-7.23658-0.107567-10.257379-2.50974-2.905717-2.310106-3.882275-5.716081-3.46469-9.002745 0.689086-5.429079 2.665688-10.677314 6.796447-14.446385 2.488602-2.27065 5.537116-4.01098 9.264852-4.402261 3.364169-0.352763 6.695927-1.032455 10.096264-0.816851 1.803743 0.114143 3.593394 0.44342 5.568117 0.698951-0.64775 2.348154-0.089717 3.833894 1.275303 5.518326 4.398033 5.426261 10.702209 6.801615 16.852316 7.144044 5.218642 0.29029 13.999207-0.710224 15.771479-7.540022 7.978275 1.919295 18.336646 4.946202 25.356682 9.681028 6.156213 4.152367 10.488954 9.736925 10.73603 17.387802 0.51153 15.824088-19.518004 12.875626-29.055765 8.853842z" p-id="4497"></path><path d="M376.700477 347.147743c-3.400338-0.215604-6.732095 0.464088-10.096264 0.816851-3.727736 0.391281-6.77625 2.131611-9.264852 4.402261-4.13076 3.768602-6.107361 9.017306-6.796447 14.446385-0.417585 3.286664 0.558972 6.692639 3.46469 9.002745 3.0208 2.402172 6.797857 2.957387 10.257379 2.50974 4.377835-0.566488 7.809174-2.330305 11.799487-4.004874 4.787905-2.009483 8.94356-2.528528 14.006723-2.107655 4.359046 0.362158 9.191105 2.592411 12.700418 4.906276 7.140756 4.708521 12.449116 8.405255 20.433028 11.772242 9.537292 4.021783 25.61785 9.513806 30.386965-7.522173 2.063971-7.371391-5.911017-16.430972-12.067699-20.583339-7.020037-4.734826-17.378407-5.897394-25.356683-7.81669-1.772272 6.829798-10.552837 7.830312-15.771479 7.540022-6.150106-0.342429-12.454283-1.717783-16.852315-7.144044-1.36502-1.684433-1.923053-3.170172-1.275303-5.518327-1.974253-0.256-3.763905-0.585277-5.567648-0.69942z" fill="#DEC4A1" p-id="4498"></path><path d="M323.944749 296.895178c-4.685974 12.635127-14.993145 19.952029-24.939098 16.55451-8.085842-2.761982-15.181035-13.767163-9.55702-28.524037 4.689262-12.303971 14.928323-19.864191 25.048543-16.22899 9.456969 3.39611 13.458084 14.88135 9.447575 28.198517z" p-id="4499"></path><path d="M574.501578 320.112734c-0.201042 4.940095-3.758268 8.688499-8.784793 8.668301-4.086606-0.015501-8.978789-3.013284-8.676756-8.800763 0.251303-4.825483 3.742297-8.649982 8.882965-8.56825 4.804815 0.076095 8.367207 3.60185 8.578584 8.700712zM319.953497 286.414679c-0.166283 4.110092-3.126488 7.228125-7.308917 7.211684-3.399398-0.013152-7.469563-2.506921-7.217791-7.3216 0.209028-4.014738 3.112866-7.196653 7.39018-7.129013 3.997828 0.063883 6.961321 2.997314 7.136528 7.238929z" fill="#FFFFFF" p-id="4500"></path><path d="M659.06331 464.638591s-6.965549 10.977468-3.264587 20.317005c5.947655 15.009116 21.696587 13.906672 21.696587 13.906672s5.452565 3.063075 30.48091-4.460976c35.210569-10.584778 50.765974-34.022165 45.849365-55.477784-5.620257-24.525739-42.287442-31.674481-48.74146-4.545057-6.152455 25.865394-46.020815 30.260139-46.020815 30.26014z" fill="#DEC4A1" p-id="4501"></path><path d="M661.887295 469.513394c-0.42651 0.711633-0.839868 1.440646-1.183706 2.195024-0.364037 0.800881-0.710694 1.608807-0.975618 2.431765a18.843479 18.843479 0 0 0-0.641175 2.470753c-0.291229 1.643567-0.349475 3.271633-0.082202 4.7616 0.020668 0.191178 0.075156 0.368264 0.113204 0.552396 0.036169 0.185072 0.086899 0.363097 0.142327 0.539244 0.054018 0.176147 0.096294 0.35793 0.166282 0.526562l0.152661 0.423691 0.308609 0.697072 0.15454 0.348536c0.050261 0.111794 0.106158 0.248015 0.147963 0.316124 0.189299 0.335383 0.334444 0.656675 0.543941 1.010378 0.421813 0.7168 0.863824 1.41575 1.372536 2.051758 0.486165 0.656675 1.049835 1.237725 1.618671 1.808441 0.596081 0.542062 1.200147 1.0752 1.871384 1.527075a15.554466 15.554466 0 0 0 2.090275 1.248998c1.454738 0.747332 3.05462 1.275303 4.702885 1.636051 0.825776 0.178026 1.669872 0.295457 2.50833 0.365916 0.419464 0.03476 0.83705 0.057306 1.24618 0.066701l0.59702 0.00047 0.278547-0.007986c0.06858-0.003288 0.206209-0.011273 0.167222-0.010803l2.462297 0.552866c-0.411949-0.218422-0.299215-0.152661-0.377189-0.191178-0.069519-0.023486-0.024426-0.014561-0.020668-0.015501a0.117431 0.117431 0 0 1 0.031941 0.007046l0.100991 0.01597c0.077974 0.009864 0.124477 0.028653 0.225938 0.038518l0.292638 0.03429c0.177556 0.032411 0.441072 0.031472 0.659494 0.05073 0.218892 0.022077 0.476771 0.018789 0.727134 0.021138 0.992059 0.021138 2.092154-0.055428 3.189431-0.153131 2.217101-0.225938 4.506539-0.594672 6.796448-1.089291 4.586393-0.971391 9.19956-2.304 13.776557-3.779406l0.858657-0.27244 0.429799-0.136221 0.396917-0.131992 0.875097-0.295927c0.296866-0.099112 0.583398-0.197284 0.844565-0.293578a98.675083 98.675083 0 0 0 3.264588-1.217996 91.060844 91.060844 0 0 0 6.39859-2.791574 82.311281 82.311281 0 0 0 6.082936-3.273512 74.009835 74.009835 0 0 0 5.680851-3.768132c3.643185-2.6624 6.917167-5.708095 9.698878-9.035626 2.788286-3.322833 5.00069-6.99655 6.487838-10.842657 1.503589-3.84 2.228374-7.875406 2.083699-11.870415a31.1808 31.1808 0 0 0-0.250833-2.98651 26.885167 26.885167 0 0 0-0.23862-1.482451 15.395229 15.395229 0 0 0-0.147963-0.737468l-0.078914-0.368264-0.009864-0.046033c-0.031472-0.135281 0.032881 0.133872 0.020668 0.08455l-0.028184-0.111794-0.056837-0.224059-0.112734-0.448118-0.056367-0.224058-0.028183-0.108037-0.022547-0.070459-0.172389-0.566018c-0.143266-0.417585-0.29076-0.881204-0.468785-1.306774-0.343839-0.867112-0.732771-1.717314-1.197329-2.528998-1.823941-3.257541-4.578877-6.054283-7.873526-8.033703-3.265527-2.01418-7.081571-3.197417-10.754819-3.315318-1.834275-0.053549-3.624396 0.159706-5.270781 0.643523-1.646385 0.487574-3.150444 1.224103-4.47225 2.210995-1.318517 0.992528-2.449615 2.248572-3.392822 3.730554-0.931464 1.490437-1.675508 3.205872-2.189857 5.089468l-0.47771 1.761937c-0.197284 0.658554-0.472073 1.60364-0.728073 2.251391a32.459861 32.459861 0 0 1-1.830518 4.133578c-1.388976 2.669916-3.137761 5.10262-5.072557 7.280734-3.893549 4.360455-8.532081 7.632088-13.313879 10.190209-4.79495 2.563288-9.770745 4.453461-14.808543 5.895046-2.520073 0.718209-5.052829 1.343883-7.61189 1.839912-1.279061 0.251303-2.562818 0.474422-3.85691 0.674525-0.583398 0.089248-1.171963 0.17145-1.764287 0.249893z m-6.258143-9.532594l3.623927-0.604066 0.832822-0.150782c0.559912-0.106158 1.124521-0.218892 1.6896-0.339141a85.266789 85.266789 0 0 0 3.384837-0.794305c2.248103-0.581989 4.481644-1.218466 6.666334-1.9611 4.364683-1.487149 8.58516-3.281497 12.403552-5.51363 3.80665-2.23589 7.234701-4.882319 9.828991-7.962774 1.289864-1.542576 2.38902-3.176749 3.222312-4.906275 0.421813-0.861945 0.790547-1.743618 1.083185-2.650657l0.115082-0.337263 0.084551-0.293108 0.088308-0.291699c0.030062-0.098642 0.058716-0.176147 0.099112-0.348066l0.455633-1.813138c0.728073-2.880822 1.862928-5.777145 3.489116-8.49826 1.633233-2.7136 3.781754-5.237431 6.361952-7.264294 2.575971-2.03015 5.545101-3.545952 8.617101-4.469901 3.073879-0.934752 6.234657-1.317108 9.324037-1.254635 6.184866 0.151251 12.092594 1.988345 17.247354 5.076316 5.144895 3.095486 9.551383 7.540022 12.536014 12.889248 0.752969 1.3312 1.396022 2.724873 1.955465 4.147669 0.288881 0.714451 0.523273 1.422796 0.770348 2.172947l0.353703 1.205314 0.042745 0.150782 0.029593 0.116022 0.055897 0.224058 0.112264 0.448118 0.055897 0.224059 0.088778 0.375779 0.114613 0.535487c0.078444 0.356521 0.149842 0.714451 0.212786 1.07426 0.13622 0.717739 0.245666 1.441116 0.342429 2.165901 0.191648 1.45004 0.3072 2.913233 0.325989 4.377365a41.986349 41.986349 0 0 1-0.771758 8.710107c-0.557563 2.854517-1.412932 5.629182-2.499875 8.279838-2.203479 5.297556-5.37647 10.037079-9.049248 14.144822-3.680763 4.115728-7.899831 7.585116-12.342018 10.5472-4.450172 2.963024-9.16433 5.377879-13.9776 7.403332a102.958972 102.958972 0 0 1-7.306099 2.732389c-1.230209 0.412418-2.451963 0.789607-3.728675 1.167266a34.909945 34.909945 0 0 1-0.916903 0.264455l-0.889659 0.249424-0.945556 0.254591-0.915963 0.240029c-4.874804 1.300198-9.808323 2.465116-14.914231 3.280558-2.554363 0.401145-5.145365 0.745923-7.839707 0.908918-1.359853 0.06764-2.724404 0.113204-4.193703 0.029123-0.365446-0.019259-0.723376-0.032411-1.117005-0.079854-0.394099-0.046972-0.748272-0.065761-1.1776-0.144675l-0.620037-0.104748c-0.202921-0.03382-0.454224-0.099112-0.677813-0.150782l-0.349005-0.086899-0.41007-0.126356c-0.143266-0.046972-0.247545-0.075626-0.458921-0.160176-0.220771-0.096294-0.254121-0.079383-0.80229-0.370143l2.461828 0.552866c-0.292639 0.015971-0.408661 0.014561-0.594672 0.018319l-0.483816-0.002349a26.881879 26.881879 0 0 1-0.926767-0.031471 29.700697 29.700697 0 0 1-1.793879-0.155009 31.233409 31.233409 0 0 1-3.507435-0.618158c-2.308697-0.554275-4.586862-1.360793-6.728808-2.513967a24.001057 24.001057 0 0 1-3.096895-1.9456c-0.996756-0.712572-1.913659-1.536939-2.794862-2.38902-0.85302-0.879794-1.677857-1.792-2.388081-2.780771-0.735119-0.97233-1.366429-2.006194-1.947949-3.056029-0.295457-0.527971-0.572594-1.133916-0.850671-1.700404-0.077974-0.156418-0.114613-0.256939-0.166283-0.378129l-0.147024-0.351823-0.294047-0.703648-0.083611-0.203391-0.041806-0.114613-0.083141-0.229225-0.163934-0.459861c-0.115552-0.305321-0.197284-0.617218-0.288411-0.928176-0.188829-0.620037-0.312367-1.249938-0.440602-1.875141-0.244727-1.254165-0.345248-2.50833-0.377659-3.741828a28.345072 28.345072 0 0 1 0.165343-3.640367c0.122128-1.192631 0.326928-2.356609 0.565549-3.503207 0.248954-1.14378 0.519516-2.274877 0.858187-3.381079 0.34102-1.105262 0.68204-2.209116 1.100565-3.290892a35.892609 35.892609 0 0 1 0.63272-1.6384l0.345247-0.832822c0.126356-0.288411 0.236272-0.547699 0.416646-0.912675l0.943677-1.91178z" p-id="4502"></path><path d="M361.348462 763.365695c-23.960661 0.256-16.535251-16.205035-31.441497-28.314539-10.879765-8.838811-40.121072-12.992117-19.572961-37.492022 20.54764-24.499435 49.116771-24.977615 60.718502 3.951794 11.602202 28.928939 13.165916 61.61098-9.704044 61.854767z" fill="#DEC4A1" p-id="4503"></path><path d="M361.271897 769.713086l-0.711633-0.021607-0.872748-0.025835-0.560382-0.01691-0.788668-0.053079c-0.557563-0.042745-1.192161-0.077035-1.865747-0.149842-0.666539-0.088778-1.383809-0.167692-2.175295-0.296396-1.594716-0.287472-3.461872-0.678752-5.603817-1.496074a61.799809 61.799809 0 0 1-1.643567-0.718679c-0.557563-0.280426-1.124521-0.600308-1.699464-0.9216-0.560382-0.372961-1.145189-0.73371-1.703222-1.164447-0.551927-0.440602-1.127809-0.879794-1.643567-1.396023-1.083655-0.992998-2.020756-2.147582-2.868139-3.336924-0.845974-1.199677-1.527075-2.428947-2.157916-3.660096-0.616749-1.22833-1.14331-2.430356-1.659538-3.61782-0.507772-1.181828-0.992998-2.32138-1.498422-3.442613-0.502606-1.113717-1.033394-2.181872-1.605049-3.229358a31.007002 31.007002 0 0 0-1.913659-3.000132c-0.724785-0.944617-1.488558-1.888763-2.385732-2.753526-0.210906-0.228286-0.445769-0.437783-0.681571-0.64916l-0.351823-0.320352-0.176147-0.161585-0.088308-0.081263-0.044155-0.040396c0.233923 0.183193 0.032411 0.024895 0.069989 0.054018l-0.907508-0.724315a2.407809 2.407809 0 0 0-0.193526-0.144676l-0.169571-0.11931-0.338202-0.244257c-0.196815-0.155479-0.527971-0.3584-0.803699-0.543471a17.74996 17.74996 0 0 0-0.891538-0.565549c-0.607354-0.374371-1.26262-0.746393-1.923523-1.121703-1.343883-0.748741-2.76433-1.504998-4.245842-2.291317-1.483391-0.796183-3.024558-1.610217-4.604242-2.497527-1.581563-0.903281-3.198356-1.884536-4.825483-3.033012-1.620081-1.146598-3.274921-2.487662-4.824073-4.180081-1.53647-1.685842-2.976646-3.819332-3.806649-6.345512-0.846914-2.517255-0.968572-5.284404-0.575413-7.742474l0.163934-0.919251c0.054018-0.308139 0.112264-0.61487 0.202451-0.893886l0.507303-1.720132c0.193996-0.550517 0.418525-1.071442 0.632249-1.608338 0.109446-0.264455 0.215134-0.535956 0.330687-0.795244l0.3739-0.742635 0.759076-1.48433 0.83611-1.38287c0.54582-0.948374 1.166796-1.780257 1.769923-2.650657l0.456102-0.64822 0.47865-0.611112 0.961996-1.221284 0.482877-0.611112 0.535487-0.625204 0.928646-1.087413 0.465027-0.544411c0.1536-0.181314 0.354172-0.386583 0.52938-0.578231l1.090701-1.170554c0.725725-0.805108 1.473996-1.490906 2.216161-2.228844 1.497483-1.446283 3.091259-2.819758 4.752675-4.132169 3.32753-2.614018 7.008294-4.928352 11.040881-6.701093 1.999618-0.914084 4.126532-1.613974 6.287266-2.21851l1.649674-0.385644c0.276198-0.061064 0.548639-0.132462 0.828124-0.183663l0.842217-0.139038c0.56273-0.088308 1.123112-0.18789 1.68913-0.262107l1.714026-0.155948c0.56" p-id="4504"></path></svg>